solid model
facet normal 0.0 -1.0 0.0
outer loop
vertex 9.88413708184789 9.1211849832473 1.29903810567662
vertex 7.63413708184795 9.1211849832473 0.0
vertex 9.13413708184791 9.1211849832473 0.0
endloop
endfacet
facet normal 0.0 -1.0 0.0
outer loop
vertex 7.63413708184795 9.1211849832473 0.0
vertex 9.88413708184789 9.1211849832473 1.29903810567662
vertex 6.88413708184797 9.1211849832473 1.29903810567662
endloop
endfacet
facet normal 0.0 -1.0 0.0
outer loop
vertex 6.88413708184797 9.1211849832473 1.29903810567662
vertex 9.88413708184789 9.1211849832473 1.29903810567662
vertex 9.13413708184791 9.1211849832473 2.59807621135324
endloop
endfacet
facet normal 0.0 -1.0 0.0
outer loop
vertex 6.88413708184797 9.1211849832473 1.29903810567662
vertex 9.13413708184791 9.1211849832473 2.59807621135324
vertex 7.63413708184795 9.1211849832473 2.59807621135324
endloop
endfacet
facet normal 0.866025403784435 5.16996199733413e-019 0.500000000000006
outer loop
vertex 9.88413708184789 50.1211849832473 1.29903810567662
vertex 9.71037665114451 34.6211849832473 1.60000000000001
vertex 9.88413708184789 34.6211849832473 1.29903810567664
endloop
endfacet
facet normal 0.866025403784435 5.16996199733413e-019 0.500000000000006
outer loop
vertex 9.88413708184789 24.6211849832472 1.29903810567664
vertex 9.13413708184791 9.1211849832473 2.59807621135324
vertex 9.88413708184789 9.1211849832473 1.29903810567662
endloop
endfacet
facet normal 0.866025403784435 5.16996199733413e-019 0.500000000000006
outer loop
vertex 9.13413708184791 9.1211849832473 2.59807621135324
vertex 9.88413708184789 24.6211849832472 1.29903810567664
vertex 9.71037665114451 24.6211849832472 1.60000000000001
endloop
endfacet
facet normal 0.866025403784435 5.16996199733413e-019 0.500000000000006
outer loop
vertex 9.13413708184791 9.1211849832473 2.59807621135324
vertex 9.71037665114451 24.6211849832472 1.60000000000001
vertex 9.13413708184791 50.1211849832473 2.59807621135324
endloop
endfacet
facet normal 0.866025403784435 5.16996199733413e-019 0.500000000000006
outer loop
vertex 9.13413708184791 50.1211849832473 2.59807621135324
vertex 9.71037665114451 24.6211849832472 1.60000000000001
vertex 9.71037665114451 34.6211849832473 1.60000000000001
endloop
endfacet
facet normal 0.866025403784435 5.16996199733413e-019 0.500000000000006
outer loop
vertex 9.13413708184791 50.1211849832473 2.59807621135324
vertex 9.71037665114451 34.6211849832473 1.60000000000001
vertex 9.88413708184789 50.1211849832473 1.29903810567662
endloop
endfacet
facet normal 0.86602540378444 -3.73676374920958e-016 -0.499999999999997
outer loop
vertex 9.13413708184791 50.1211849832473 0.0
vertex 9.88413708184789 34.6211849832473 1.29903810567664
vertex 9.13413708184791 34.6211849832473 0.0
endloop
endfacet
facet normal 0.86602540378444 -3.73676374920958e-016 -0.499999999999997
outer loop
vertex 9.88413708184789 34.6211849832473 1.29903810567664
vertex 9.13413708184791 50.1211849832473 0.0
vertex 9.88413708184789 50.1211849832473 1.29903810567662
endloop
endfacet
facet normal 0.0 1.0 0.0
outer loop
vertex 6.88413708184797 50.1211849832473 1.29903810567662
vertex 9.13413708184791 50.1211849832473 0.0
vertex 7.63413708184795 50.1211849832473 0.0
endloop
endfacet
facet normal 0.0 1.0 0.0
outer loop
vertex 9.13413708184791 50.1211849832473 0.0
vertex 6.88413708184797 50.1211849832473 1.29903810567662
vertex 9.88413708184789 50.1211849832473 1.29903810567662
endloop
endfacet
facet normal 0.0 1.0 0.0
outer loop
vertex 9.88413708184789 50.1211849832473 1.29903810567662
vertex 6.88413708184797 50.1211849832473 1.29903810567662
vertex 7.63413708184795 50.1211849832473 2.59807621135324
endloop
endfacet
facet normal 0.0 1.0 0.0
outer loop
vertex 9.88413708184789 50.1211849832473 1.29903810567662
vertex 7.63413708184795 50.1211849832473 2.59807621135324
vertex 9.13413708184791 50.1211849832473 2.59807621135324
endloop
endfacet
facet normal 0.13052619222 0.991444861373817 0.0
outer loop
vertex 16.134137081848 34.6211849832473 1.60000000000001
vertex 16.9105942171556 34.5189624621145 0.0
vertex 16.134137081848 34.6211849832473 0.0
endloop
endfacet
facet normal 0.258819045102548 0.965925826289061 0.0
outer loop
vertex 16.9105942171556 34.5189624621145 0.0
vertex 16.134137081848 34.6211849832473 1.60000000000001
vertex 16.9105942171556 34.5189624621145 1.60000000000001
endloop
endfacet
facet normal 0.258819045102548 0.965925826289061 0.0
outer loop
vertex 16.9105942171556 34.5189624621145 1.60000000000001
vertex 17.634137081848 34.2192611946005 0.0
vertex 16.9105942171556 34.5189624621145 0.0
endloop
endfacet
facet normal 0.500000000000013 0.866025403784431 0.0
outer loop
vertex 17.634137081848 34.2192611946005 0.0
vertex 16.9105942171556 34.5189624621145 1.60000000000001
vertex 17.634137081848 34.2192611946005 1.60000000000001
endloop
endfacet
facet normal 0.500000000000013 0.866025403784431 0.0
outer loop
vertex 17.634137081848 34.2192611946005 1.60000000000001
vertex 18.2554574254077 33.7425053268069 0.0
vertex 17.634137081848 34.2192611946005 0.0
endloop
endfacet
facet normal 0.707106781186555 0.70710678118654 0.0
outer loop
vertex 18.2554574254077 33.7425053268069 0.0
vertex 17.634137081848 34.2192611946005 1.60000000000001
vertex 18.2554574254077 33.7425053268069 1.60000000000001
endloop
endfacet
facet normal 0.707106781186555 0.70710678118654 0.0
outer loop
vertex 18.2554574254077 33.7425053268069 0.0
vertex 18.7322132932013 33.1211849832472 1.60000000000001
vertex 18.7322132932013 33.1211849832472 0.0
endloop
endfacet
facet normal 0.866025403784437 0.500000000000003 0.0
outer loop
vertex 18.7322132932013 33.1211849832472 1.60000000000001
vertex 18.2554574254077 33.7425053268069 0.0
vertex 18.2554574254077 33.7425053268069 1.60000000000001
endloop
endfacet
facet normal 0.866025403784437 0.500000000000003 0.0
outer loop
vertex 18.7322132932013 33.1211849832472 0.0
vertex 19.0319145607153 32.3976421185548 1.60000000000001
vertex 19.0319145607153 32.3976421185548 0.0
endloop
endfacet
facet normal 0.965925826289076 0.258819045102492 0.0
outer loop
vertex 19.0319145607153 32.3976421185548 1.60000000000001
vertex 18.7322132932013 33.1211849832472 0.0
vertex 18.7322132932013 33.1211849832472 1.60000000000001
endloop
endfacet
facet normal 0.965925826289076 0.258819045102492 0.0
outer loop
vertex 19.0319145607153 32.3976421185548 0.0
vertex 19.134137081848 31.6211849832473 1.60000000000001
vertex 19.134137081848 31.6211849832473 0.0
endloop
endfacet
facet normal 0.991444861373832 0.130526192219884 0.0
outer loop
vertex 19.134137081848 31.6211849832473 1.60000000000001
vertex 19.0319145607153 32.3976421185548 0.0
vertex 19.0319145607153 32.3976421185548 1.60000000000001
endloop
endfacet
facet normal 1.0 0.0 0.0
outer loop
vertex 19.134137081848 31.6211849832473 0.0
vertex 19.134137081848 27.6211849832472 1.60000000000001
vertex 19.134137081848 27.6211849832472 0.0
endloop
endfacet
facet normal 1.0 0.0 0.0
outer loop
vertex 19.134137081848 27.6211849832472 1.60000000000001
vertex 19.134137081848 31.6211849832473 0.0
vertex 19.134137081848 31.6211849832473 1.60000000000001
endloop
endfacet
facet normal 0.991444861373832 -0.130526192219884 0.0
outer loop
vertex 19.134137081848 27.6211849832472 0.0
vertex 19.0319145607153 26.8447278479397 1.60000000000001
vertex 19.0319145607153 26.8447278479397 0.0
endloop
endfacet
facet normal 0.965925826289082 -0.25881904510247 0.0
outer loop
vertex 19.0319145607153 26.8447278479397 1.60000000000001
vertex 19.134137081848 27.6211849832472 0.0
vertex 19.134137081848 27.6211849832472 1.60000000000001
endloop
endfacet
facet normal 0.965925826289082 -0.25881904510247 0.0
outer loop
vertex 19.0319145607153 26.8447278479397 0.0
vertex 18.7322132932013 26.1211849832472 1.60000000000001
vertex 18.7322132932013 26.1211849832472 0.0
endloop
endfacet
facet normal 0.86602540378443 -0.500000000000015 0.0
outer loop
vertex 18.7322132932013 26.1211849832472 1.60000000000001
vertex 19.0319145607153 26.8447278479397 0.0
vertex 19.0319145607153 26.8447278479397 1.60000000000001
endloop
endfacet
facet normal 0.86602540378443 -0.500000000000015 0.0
outer loop
vertex 18.7322132932013 26.1211849832472 0.0
vertex 18.2554574254077 25.4998646396876 1.60000000000001
vertex 18.2554574254077 25.4998646396876 0.0
endloop
endfacet
facet normal 0.70710678118653 -0.707106781186565 0.0
outer loop
vertex 18.2554574254077 25.4998646396876 1.60000000000001
vertex 18.7322132932013 26.1211849832472 0.0
vertex 18.7322132932013 26.1211849832472 1.60000000000001
endloop
endfacet
facet normal 0.70710678118653 -0.707106781186565 0.0
outer loop
vertex 18.2554574254077 25.4998646396876 1.60000000000001
vertex 17.634137081848 25.0231087718939 0.0
vertex 18.2554574254077 25.4998646396876 0.0
endloop
endfacet
facet normal 0.500000000000013 -0.866025403784431 0.0
outer loop
vertex 17.634137081848 25.0231087718939 0.0
vertex 18.2554574254077 25.4998646396876 1.60000000000001
vertex 17.634137081848 25.0231087718939 1.60000000000001
endloop
endfacet
facet normal 0.500000000000013 -0.866025403784431 0.0
outer loop
vertex 17.634137081848 25.0231087718939 1.60000000000001
vertex 16.9105942171556 24.72340750438 0.0
vertex 17.634137081848 25.0231087718939 0.0
endloop
endfacet
facet normal 0.258819045102548 -0.965925826289061 0.0
outer loop
vertex 16.9105942171556 24.72340750438 0.0
vertex 17.634137081848 25.0231087718939 1.60000000000001
vertex 16.9105942171556 24.72340750438 1.60000000000001
endloop
endfacet
facet normal 0.258819045102548 -0.965925826289061 0.0
outer loop
vertex 16.9105942171556 24.72340750438 1.60000000000001
vertex 16.134137081848 24.6211849832472 0.0
vertex 16.9105942171556 24.72340750438 0.0
endloop
endfacet
facet normal 0.13052619222 -0.991444861373817 0.0
outer loop
vertex 16.134137081848 24.6211849832472 0.0
vertex 16.9105942171556 24.72340750438 1.60000000000001
vertex 16.134137081848 24.6211849832472 1.60000000000001
endloop
endfacet
facet normal 0.0 0.0 1.0
outer loop
vertex 9.71037665114451 24.6211849832472 1.60000000000001
vertex 10.9103766511445 25.8211849832472 1.60000000000001
vertex 9.71037665114451 34.6211849832473 1.60000000000001
endloop
endfacet
facet normal 0.0 0.0 1.0
outer loop
vertex 10.9103766511445 25.8211849832472 1.60000000000001
vertex 9.71037665114451 24.6211849832472 1.60000000000001
vertex 16.134137081848 24.6211849832472 1.60000000000001
endloop
endfacet
facet normal 0.0 0.0 1.0
outer loop
vertex 10.9103766511445 25.8211849832472 1.60000000000001
vertex 16.134137081848 24.6211849832472 1.60000000000001
vertex 16.0554849264698 25.8211849832472 1.60000000000001
endloop
endfacet
facet normal 0.0 0.0 1.0
outer loop
vertex 16.0554849264698 25.8211849832472 1.60000000000001
vertex 16.134137081848 24.6211849832472 1.60000000000001
vertex 16.5973313558274 25.892520418981 1.60000000000001
endloop
endfacet
facet normal 0.0 0.0 1.0
outer loop
vertex 16.5973313558274 25.892520418981 1.60000000000001
vertex 16.134137081848 24.6211849832472 1.60000000000001
vertex 16.9105942171556 24.72340750438 1.60000000000001
endloop
endfacet
facet normal 0.0 0.0 1.0
outer loop
vertex 16.5973313558274 25.892520418981 1.60000000000001
vertex 16.9105942171556 24.72340750438 1.60000000000001
vertex 17.0289597055 26.07130673532 1.60000000000001
endloop
endfacet
facet normal 0.0 0.0 1.0
outer loop
vertex 17.0289597055 26.07130673532 1.60000000000001
vertex 16.9105942171556 24.72340750438 1.60000000000001
vertex 17.634137081848 25.0231087718939 1.60000000000001
endloop
endfacet
facet normal 0.0 0.0 1.0
outer loop
vertex 17.0289597055 26.07130673532 1.60000000000001
vertex 17.634137081848 25.0231087718939 1.60000000000001
vertex 17.3996073721349 26.3557146929604 1.60000000000001
endloop
endfacet
facet normal 0.0 0.0 1.0
outer loop
vertex 17.3996073721349 26.3557146929604 1.60000000000001
vertex 17.634137081848 25.0231087718939 1.60000000000001
vertex 17.6840153297751 26.7263623595953 1.60000000000001
endloop
endfacet
facet normal 0.0 0.0 1.0
outer loop
vertex 17.6840153297751 26.7263623595953 1.60000000000001
vertex 17.634137081848 25.0231087718939 1.60000000000001
vertex 18.2554574254077 25.4998646396876 1.60000000000001
endloop
endfacet
facet normal 0.0 0.0 1.0
outer loop
vertex 17.6840153297751 26.7263623595953 1.60000000000001
vertex 18.2554574254077 25.4998646396876 1.60000000000001
vertex 17.8628016461143 27.1579907092678 1.60000000000001
endloop
endfacet
facet normal 0.0 0.0 1.0
outer loop
vertex 17.8628016461143 27.1579907092678 1.60000000000001
vertex 18.2554574254077 25.4998646396876 1.60000000000001
vertex 17.9341370818479 27.6998371386253 1.60000000000001
endloop
endfacet
facet normal 0.0 0.0 1.0
outer loop
vertex 17.9341370818479 27.6998371386253 1.60000000000001
vertex 18.2554574254077 25.4998646396876 1.60000000000001
vertex 17.9341370818479 31.5425328278692 1.60000000000001
endloop
endfacet
facet normal 0.0 0.0 1.0
outer loop
vertex 9.71037665114451 34.6211849832473 1.60000000000001
vertex 10.9103766511445 33.4211849832473 1.60000000000001
vertex 16.134137081848 34.6211849832473 1.60000000000001
endloop
endfacet
facet normal 0.0 0.0 1.0
outer loop
vertex 10.9103766511445 33.4211849832473 1.60000000000001
vertex 9.71037665114451 34.6211849832473 1.60000000000001
vertex 10.9103766511445 25.8211849832472 1.60000000000001
endloop
endfacet
facet normal 0.0 0.0 1.0
outer loop
vertex 16.134137081848 34.6211849832473 1.60000000000001
vertex 10.9103766511445 33.4211849832473 1.60000000000001
vertex 16.0554849264698 33.4211849832473 1.60000000000001
endloop
endfacet
facet normal 0.0 0.0 1.0
outer loop
vertex 16.134137081848 34.6211849832473 1.60000000000001
vertex 16.0554849264698 33.4211849832473 1.60000000000001
vertex 16.5973313558274 33.3498495475135 1.60000000000001
endloop
endfacet
facet normal 0.0 0.0 1.0
outer loop
vertex 16.134137081848 34.6211849832473 1.60000000000001
vertex 16.5973313558274 33.3498495475135 1.60000000000001
vertex 16.9105942171556 34.5189624621145 1.60000000000001
endloop
endfacet
facet normal 0.0 0.0 1.0
outer loop
vertex 16.9105942171556 34.5189624621145 1.60000000000001
vertex 16.5973313558274 33.3498495475135 1.60000000000001
vertex 17.0289597055 33.1710632311744 1.60000000000001
endloop
endfacet
facet normal 0.0 0.0 1.0
outer loop
vertex 16.9105942171556 34.5189624621145 1.60000000000001
vertex 17.0289597055 33.1710632311744 1.60000000000001
vertex 17.634137081848 34.2192611946005 1.60000000000001
endloop
endfacet
facet normal 0.0 0.0 1.0
outer loop
vertex 17.634137081848 34.2192611946005 1.60000000000001
vertex 17.0289597055 33.1710632311744 1.60000000000001
vertex 17.3996073721349 32.8866552735341 1.60000000000001
endloop
endfacet
facet normal 0.0 0.0 1.0
outer loop
vertex 17.634137081848 34.2192611946005 1.60000000000001
vertex 17.3996073721349 32.8866552735341 1.60000000000001
vertex 17.6840153297751 32.5160076068993 1.60000000000001
endloop
endfacet
facet normal 0.0 0.0 1.0
outer loop
vertex 17.634137081848 34.2192611946005 1.60000000000001
vertex 17.6840153297751 32.5160076068993 1.60000000000001
vertex 18.2554574254077 33.7425053268069 1.60000000000001
endloop
endfacet
facet normal 0.0 0.0 1.0
outer loop
vertex 18.2554574254077 33.7425053268069 1.60000000000001
vertex 17.6840153297751 32.5160076068993 1.60000000000001
vertex 17.8628016461143 32.0843792572265 1.60000000000001
endloop
endfacet
facet normal 0.0 0.0 1.0
outer loop
vertex 18.2554574254077 33.7425053268069 1.60000000000001
vertex 17.8628016461143 32.0843792572265 1.60000000000001
vertex 17.9341370818479 31.5425328278692 1.60000000000001
endloop
endfacet
facet normal 0.0 0.0 1.0
outer loop
vertex 18.2554574254077 33.7425053268069 1.60000000000001
vertex 17.9341370818479 31.5425328278692 1.60000000000001
vertex 18.2554574254077 25.4998646396876 1.60000000000001
endloop
endfacet
facet normal 0.0 0.0 1.0
outer loop
vertex 18.2554574254077 33.7425053268069 1.60000000000001
vertex 18.2554574254077 25.4998646396876 1.60000000000001
vertex 18.7322132932013 26.1211849832472 1.60000000000001
endloop
endfacet
facet normal 0.0 0.0 1.0
outer loop
vertex 18.2554574254077 33.7425053268069 1.60000000000001
vertex 18.7322132932013 26.1211849832472 1.60000000000001
vertex 18.7322132932013 33.1211849832472 1.60000000000001
endloop
endfacet
facet normal 0.0 0.0 1.0
outer loop
vertex 18.7322132932013 33.1211849832472 1.60000000000001
vertex 18.7322132932013 26.1211849832472 1.60000000000001
vertex 19.0319145607153 26.8447278479397 1.60000000000001
endloop
endfacet
facet normal 0.0 0.0 1.0
outer loop
vertex 18.7322132932013 33.1211849832472 1.60000000000001
vertex 19.0319145607153 26.8447278479397 1.60000000000001
vertex 19.0319145607153 32.3976421185548 1.60000000000001
endloop
endfacet
facet normal 0.0 0.0 1.0
outer loop
vertex 19.0319145607153 32.3976421185548 1.60000000000001
vertex 19.0319145607153 26.8447278479397 1.60000000000001
vertex 19.134137081848 27.6211849832472 1.60000000000001
endloop
endfacet
facet normal 0.0 0.0 1.0
outer loop
vertex 19.0319145607153 32.3976421185548 1.60000000000001
vertex 19.134137081848 27.6211849832472 1.60000000000001
vertex 19.134137081848 31.6211849832473 1.60000000000001
endloop
endfacet
facet normal 0.86602540378444 3.73676374920956e-016 -0.499999999999997
outer loop
vertex 9.13413708184791 24.6211849832472 0.0
vertex 9.88413708184789 9.1211849832473 1.29903810567662
vertex 9.13413708184791 9.1211849832473 0.0
endloop
endfacet
facet normal 0.86602540378444 3.73676374920956e-016 -0.499999999999997
outer loop
vertex 9.88413708184789 9.1211849832473 1.29903810567662
vertex 9.13413708184791 24.6211849832472 0.0
vertex 9.88413708184789 24.6211849832472 1.29903810567664
endloop
endfacet
facet normal 0.0 1.0 0.0
outer loop
vertex 9.88413708184789 34.6211849832473 1.29903810567664
vertex 16.134137081848 34.6211849832473 0.0
vertex 9.13413708184791 34.6211849832473 0.0
endloop
endfacet
facet normal 0.0 1.0 0.0
outer loop
vertex 16.134137081848 34.6211849832473 0.0
vertex 9.88413708184789 34.6211849832473 1.29903810567664
vertex 16.134137081848 34.6211849832473 1.60000000000001
endloop
endfacet
facet normal 0.0 1.0 0.0
outer loop
vertex 16.134137081848 34.6211849832473 1.60000000000001
vertex 9.88413708184789 34.6211849832473 1.29903810567664
vertex 9.71037665114451 34.6211849832473 1.60000000000001
endloop
endfacet
facet normal 0.0 -1.0 0.0
outer loop
vertex 16.134137081848 24.6211849832472 1.60000000000001
vertex 9.13413708184791 24.6211849832472 0.0
vertex 16.134137081848 24.6211849832472 0.0
endloop
endfacet
facet normal 0.0 -1.0 0.0
outer loop
vertex 9.13413708184791 24.6211849832472 0.0
vertex 16.134137081848 24.6211849832472 1.60000000000001
vertex 9.88413708184789 24.6211849832472 1.29903810567664
endloop
endfacet
facet normal 0.0 -1.0 0.0
outer loop
vertex 9.88413708184789 24.6211849832472 1.29903810567664
vertex 16.134137081848 24.6211849832472 1.60000000000001
vertex 9.71037665114451 24.6211849832472 1.60000000000001
endloop
endfacet
facet normal -0.866025403784438 0.0 0.5
outer loop
vertex 7.63413708184795 50.1211849832473 2.59807621135324
vertex 6.88413708184797 9.1211849832473 1.29903810567662
vertex 7.63413708184795 9.1211849832473 2.59807621135324
endloop
endfacet
facet normal -0.866025403784438 0.0 0.5
outer loop
vertex 6.88413708184797 9.1211849832473 1.29903810567662
vertex 7.63413708184795 50.1211849832473 2.59807621135324
vertex 6.88413708184797 50.1211849832473 1.29903810567662
endloop
endfacet
facet normal -0.866025403784438 0.0 -0.5
outer loop
vertex 6.88413708184797 50.1211849832473 1.29903810567662
vertex 7.63413708184795 9.1211849832473 0.0
vertex 6.88413708184797 9.1211849832473 1.29903810567662
endloop
endfacet
facet normal -0.866025403784438 0.0 -0.5
outer loop
vertex 7.63413708184795 9.1211849832473 0.0
vertex 6.88413708184797 50.1211849832473 1.29903810567662
vertex 7.63413708184795 50.1211849832473 0.0
endloop
endfacet
facet normal 0.0 0.0 -1.0
outer loop
vertex 16.134137081848 34.6211849832473 0.0
vertex 9.13413708184791 24.6211849832472 0.0
vertex 9.13413708184791 34.6211849832473 0.0
endloop
endfacet
facet normal 0.0 0.0 -1.0
outer loop
vertex 9.13413708184791 24.6211849832472 0.0
vertex 16.134137081848 34.6211849832473 0.0
vertex 16.134137081848 24.6211849832472 0.0
endloop
endfacet
facet normal 0.0 0.0 -1.0
outer loop
vertex 16.134137081848 24.6211849832472 0.0
vertex 16.134137081848 34.6211849832473 0.0
vertex 16.9105942171556 34.5189624621145 0.0
endloop
endfacet
facet normal 0.0 0.0 -1.0
outer loop
vertex 16.134137081848 24.6211849832472 0.0
vertex 16.9105942171556 34.5189624621145 0.0
vertex 16.9105942171556 24.72340750438 0.0
endloop
endfacet
facet normal 0.0 0.0 -1.0
outer loop
vertex 16.9105942171556 24.72340750438 0.0
vertex 16.9105942171556 34.5189624621145 0.0
vertex 17.634137081848 34.2192611946005 0.0
endloop
endfacet
facet normal 0.0 0.0 -1.0
outer loop
vertex 16.9105942171556 24.72340750438 0.0
vertex 17.634137081848 34.2192611946005 0.0
vertex 17.634137081848 25.0231087718939 0.0
endloop
endfacet
facet normal 0.0 0.0 -1.0
outer loop
vertex 17.634137081848 25.0231087718939 0.0
vertex 17.634137081848 34.2192611946005 0.0
vertex 18.2554574254077 33.7425053268069 0.0
endloop
endfacet
facet normal 0.0 0.0 -1.0
outer loop
vertex 17.634137081848 25.0231087718939 0.0
vertex 18.2554574254077 33.7425053268069 0.0
vertex 18.2554574254077 25.4998646396876 0.0
endloop
endfacet
facet normal 0.0 0.0 -1.0
outer loop
vertex 18.2554574254077 25.4998646396876 0.0
vertex 18.2554574254077 33.7425053268069 0.0
vertex 18.7322132932013 33.1211849832472 0.0
endloop
endfacet
facet normal 0.0 0.0 -1.0
outer loop
vertex 18.2554574254077 25.4998646396876 0.0
vertex 18.7322132932013 33.1211849832472 0.0
vertex 18.7322132932013 26.1211849832472 0.0
endloop
endfacet
facet normal 0.0 0.0 -1.0
outer loop
vertex 18.7322132932013 26.1211849832472 0.0
vertex 18.7322132932013 33.1211849832472 0.0
vertex 19.0319145607153 32.3976421185548 0.0
endloop
endfacet
facet normal 0.0 0.0 -1.0
outer loop
vertex 18.7322132932013 26.1211849832472 0.0
vertex 19.0319145607153 32.3976421185548 0.0
vertex 19.0319145607153 26.8447278479397 0.0
endloop
endfacet
facet normal 0.0 0.0 -1.0
outer loop
vertex 19.0319145607153 26.8447278479397 0.0
vertex 19.0319145607153 32.3976421185548 0.0
vertex 19.134137081848 31.6211849832473 0.0
endloop
endfacet
facet normal 0.0 0.0 -1.0
outer loop
vertex 19.0319145607153 26.8447278479397 0.0
vertex 19.134137081848 31.6211849832473 0.0
vertex 19.134137081848 27.6211849832472 0.0
endloop
endfacet
facet normal 0.0 0.0 -1.0
outer loop
vertex 9.13413708184791 50.1211849832473 0.0
vertex 7.63413708184795 9.1211849832473 0.0
vertex 7.63413708184795 50.1211849832473 0.0
endloop
endfacet
facet normal 0.0 0.0 -1.0
outer loop
vertex 7.63413708184795 9.1211849832473 0.0
vertex 9.13413708184791 50.1211849832473 0.0
vertex 9.13413708184791 9.1211849832473 0.0
endloop
endfacet
facet normal 0.0 0.0 -1.0
outer loop
vertex 9.13413708184791 9.1211849832473 0.0
vertex 9.13413708184791 50.1211849832473 0.0
vertex 9.13413708184791 34.6211849832473 0.0
endloop
endfacet
facet normal 0.0 0.0 -1.0
outer loop
vertex 9.13413708184791 9.1211849832473 0.0
vertex 9.13413708184791 34.6211849832473 0.0
vertex 9.13413708184791 24.6211849832472 0.0
endloop
endfacet
facet normal 0.0 0.0 1.0
outer loop
vertex 9.13413708184791 9.1211849832473 2.59807621135324
vertex 7.63413708184795 50.1211849832473 2.59807621135324
vertex 7.63413708184795 9.1211849832473 2.59807621135324
endloop
endfacet
facet normal 0.0 0.0 1.0
outer loop
vertex 7.63413708184795 50.1211849832473 2.59807621135324
vertex 9.13413708184791 9.1211849832473 2.59807621135324
vertex 9.13413708184791 50.1211849832473 2.59807621135324
endloop
endfacet
facet normal 0.0 0.0 1.0
outer loop
vertex 16.0554849264698 25.8211849832472 0.850000000000003
vertex 10.9103766511445 33.4211849832473 0.850000000000003
vertex 10.9103766511445 25.8211849832472 0.850000000000003
endloop
endfacet
facet normal 0.0 0.0 1.0
outer loop
vertex 10.9103766511445 33.4211849832473 0.850000000000003
vertex 16.0554849264698 25.8211849832472 0.850000000000003
vertex 16.0554849264698 33.4211849832473 0.850000000000003
endloop
endfacet
facet normal 0.0 0.0 1.0
outer loop
vertex 16.0554849264698 33.4211849832473 0.850000000000003
vertex 16.0554849264698 25.8211849832472 0.850000000000003
vertex 16.5973313558274 25.892520418981 0.850000000000003
endloop
endfacet
facet normal 0.0 0.0 1.0
outer loop
vertex 16.0554849264698 33.4211849832473 0.850000000000003
vertex 16.5973313558274 25.892520418981 0.850000000000003
vertex 16.5973313558274 33.3498495475135 0.850000000000003
endloop
endfacet
facet normal 0.0 0.0 1.0
outer loop
vertex 16.5973313558274 33.3498495475135 0.850000000000003
vertex 16.5973313558274 25.892520418981 0.850000000000003
vertex 17.0289597055 26.07130673532 0.850000000000003
endloop
endfacet
facet normal 0.0 0.0 1.0
outer loop
vertex 16.5973313558274 33.3498495475135 0.850000000000003
vertex 17.0289597055 26.07130673532 0.850000000000003
vertex 17.0289597055 33.1710632311744 0.850000000000003
endloop
endfacet
facet normal 0.0 0.0 1.0
outer loop
vertex 17.0289597055 33.1710632311744 0.850000000000003
vertex 17.0289597055 26.07130673532 0.850000000000003
vertex 17.3996073721349 26.3557146929604 0.850000000000003
endloop
endfacet
facet normal 0.0 0.0 1.0
outer loop
vertex 17.0289597055 33.1710632311744 0.850000000000003
vertex 17.3996073721349 26.3557146929604 0.850000000000003
vertex 17.3996073721349 32.8866552735341 0.850000000000003
endloop
endfacet
facet normal 0.0 0.0 1.0
outer loop
vertex 17.3996073721349 32.8866552735341 0.850000000000003
vertex 17.3996073721349 26.3557146929604 0.850000000000003
vertex 17.6840153297751 26.7263623595953 0.850000000000003
endloop
endfacet
facet normal 0.0 0.0 1.0
outer loop
vertex 17.3996073721349 32.8866552735341 0.850000000000003
vertex 17.6840153297751 26.7263623595953 0.850000000000003
vertex 17.6840153297751 32.5160076068993 0.850000000000003
endloop
endfacet
facet normal 0.0 0.0 1.0
outer loop
vertex 17.6840153297751 32.5160076068993 0.850000000000003
vertex 17.6840153297751 26.7263623595953 0.850000000000003
vertex 17.8628016461143 27.1579907092678 0.850000000000003
endloop
endfacet
facet normal 0.0 0.0 1.0
outer loop
vertex 17.6840153297751 32.5160076068993 0.850000000000003
vertex 17.8628016461143 27.1579907092678 0.850000000000003
vertex 17.8628016461143 32.0843792572265 0.850000000000003
endloop
endfacet
facet normal 0.0 0.0 1.0
outer loop
vertex 17.8628016461143 32.0843792572265 0.850000000000003
vertex 17.8628016461143 27.1579907092678 0.850000000000003
vertex 17.9341370818479 27.6998371386253 0.850000000000003
endloop
endfacet
facet normal 0.0 0.0 1.0
outer loop
vertex 17.8628016461143 32.0843792572265 0.850000000000003
vertex 17.9341370818479 27.6998371386253 0.850000000000003
vertex 17.9341370818479 31.5425328278692 0.850000000000003
endloop
endfacet
facet normal -0.49999999999996 -0.866025403784461 0.0
outer loop
vertex 17.0289597055 33.1710632311744 1.60000000000001
vertex 16.5973313558274 33.3498495475135 0.850000000000003
vertex 17.0289597055 33.1710632311744 0.850000000000003
endloop
endfacet
facet normal -0.258819045102495 -0.965925826289075 0.0
outer loop
vertex 16.5973313558274 33.3498495475135 0.850000000000003
vertex 17.0289597055 33.1710632311744 1.60000000000001
vertex 16.5973313558274 33.3498495475135 1.60000000000001
endloop
endfacet
facet normal -0.258819045102495 -0.965925826289075 0.0
outer loop
vertex 16.5973313558274 33.3498495475135 1.60000000000001
vertex 16.0554849264698 33.4211849832473 0.850000000000003
vertex 16.5973313558274 33.3498495475135 0.850000000000003
endloop
endfacet
facet normal -0.13052619222004 -0.991444861373812 0.0
outer loop
vertex 16.0554849264698 33.4211849832473 0.850000000000003
vertex 16.5973313558274 33.3498495475135 1.60000000000001
vertex 16.0554849264698 33.4211849832473 1.60000000000001
endloop
endfacet
facet normal 0.0 -1.0 0.0
outer loop
vertex 16.0554849264698 33.4211849832473 1.60000000000001
vertex 10.9103766511445 33.4211849832473 0.850000000000003
vertex 16.0554849264698 33.4211849832473 0.850000000000003
endloop
endfacet
facet normal 0.0 -1.0 0.0
outer loop
vertex 10.9103766511445 33.4211849832473 0.850000000000003
vertex 16.0554849264698 33.4211849832473 1.60000000000001
vertex 10.9103766511445 33.4211849832473 1.60000000000001
endloop
endfacet
facet normal 1.0 0.0 0.0
outer loop
vertex 10.9103766511445 33.4211849832473 0.850000000000003
vertex 10.9103766511445 25.8211849832472 1.60000000000001
vertex 10.9103766511445 25.8211849832472 0.850000000000003
endloop
endfacet
facet normal 1.0 0.0 0.0
outer loop
vertex 10.9103766511445 25.8211849832472 1.60000000000001
vertex 10.9103766511445 33.4211849832473 0.850000000000003
vertex 10.9103766511445 33.4211849832473 1.60000000000001
endloop
endfacet
facet normal 0.0 1.0 0.0
outer loop
vertex 10.9103766511445 25.8211849832472 1.60000000000001
vertex 16.0554849264698 25.8211849832472 0.850000000000003
vertex 10.9103766511445 25.8211849832472 0.850000000000003
endloop
endfacet
facet normal 0.0 1.0 0.0
outer loop
vertex 16.0554849264698 25.8211849832472 0.850000000000003
vertex 10.9103766511445 25.8211849832472 1.60000000000001
vertex 16.0554849264698 25.8211849832472 1.60000000000001
endloop
endfacet
facet normal -0.13052619222004 0.991444861373812 0.0
outer loop
vertex 16.0554849264698 25.8211849832472 1.60000000000001
vertex 16.5973313558274 25.892520418981 0.850000000000003
vertex 16.0554849264698 25.8211849832472 0.850000000000003
endloop
endfacet
facet normal -0.258819045102495 0.965925826289075 0.0
outer loop
vertex 16.5973313558274 25.892520418981 0.850000000000003
vertex 16.0554849264698 25.8211849832472 1.60000000000001
vertex 16.5973313558274 25.892520418981 1.60000000000001
endloop
endfacet
facet normal -0.258819045102495 0.965925826289075 0.0
outer loop
vertex 16.5973313558274 25.892520418981 1.60000000000001
vertex 17.0289597055 26.07130673532 0.850000000000003
vertex 16.5973313558274 25.892520418981 0.850000000000003
endloop
endfacet
facet normal -0.49999999999996 0.866025403784461 0.0
outer loop
vertex 17.0289597055 26.07130673532 0.850000000000003
vertex 16.5973313558274 25.892520418981 1.60000000000001
vertex 17.0289597055 26.07130673532 1.60000000000001
endloop
endfacet
facet normal -0.49999999999996 0.866025403784461 0.0
outer loop
vertex 17.0289597055 26.07130673532 1.60000000000001
vertex 17.3996073721349 26.3557146929604 0.850000000000003
vertex 17.0289597055 26.07130673532 0.850000000000003
endloop
endfacet
facet normal -0.707106781186616 0.707106781186479 0.0
outer loop
vertex 17.3996073721349 26.3557146929604 0.850000000000003
vertex 17.0289597055 26.07130673532 1.60000000000001
vertex 17.3996073721349 26.3557146929604 1.60000000000001
endloop
endfacet
facet normal -0.866025403784445 0.499999999999989 0.0
outer loop
vertex 17.6840153297751 26.7263623595953 1.60000000000001
vertex 17.3996073721349 26.3557146929604 0.850000000000003
vertex 17.3996073721349 26.3557146929604 1.60000000000001
endloop
endfacet
facet normal -0.707106781186616 0.707106781186479 0.0
outer loop
vertex 17.3996073721349 26.3557146929604 0.850000000000003
vertex 17.6840153297751 26.7263623595953 1.60000000000001
vertex 17.6840153297751 26.7263623595953 0.850000000000003
endloop
endfacet
facet normal -0.965925826289061 0.25881904510255 0.0
outer loop
vertex 17.8628016461143 27.1579907092678 1.60000000000001
vertex 17.6840153297751 26.7263623595953 0.850000000000003
vertex 17.6840153297751 26.7263623595953 1.60000000000001
endloop
endfacet
facet normal -0.866025403784445 0.499999999999989 0.0
outer loop
vertex 17.6840153297751 26.7263623595953 0.850000000000003
vertex 17.8628016461143 27.1579907092678 1.60000000000001
vertex 17.8628016461143 27.1579907092678 0.850000000000003
endloop
endfacet
facet normal -0.991444861373831 0.130526192219896 0.0
outer loop
vertex 17.9341370818479 27.6998371386253 1.60000000000001
vertex 17.8628016461143 27.1579907092678 0.850000000000003
vertex 17.8628016461143 27.1579907092678 1.60000000000001
endloop
endfacet
facet normal -0.965925826289061 0.25881904510255 0.0
outer loop
vertex 17.8628016461143 27.1579907092678 0.850000000000003
vertex 17.9341370818479 27.6998371386253 1.60000000000001
vertex 17.9341370818479 27.6998371386253 0.850000000000003
endloop
endfacet
facet normal -1.0 0.0 0.0
outer loop
vertex 17.9341370818479 31.5425328278692 1.60000000000001
vertex 17.9341370818479 27.6998371386253 0.850000000000003
vertex 17.9341370818479 27.6998371386253 1.60000000000001
endloop
endfacet
facet normal -1.0 0.0 0.0
outer loop
vertex 17.9341370818479 27.6998371386253 0.850000000000003
vertex 17.9341370818479 31.5425328278692 1.60000000000001
vertex 17.9341370818479 31.5425328278692 0.850000000000003
endloop
endfacet
facet normal -0.965925826289084 -0.258819045102461 0.0
outer loop
vertex 17.8628016461143 32.0843792572265 1.60000000000001
vertex 17.9341370818479 31.5425328278692 0.850000000000003
vertex 17.9341370818479 31.5425328278692 1.60000000000001
endloop
endfacet
facet normal -0.991444861373825 -0.13052619221994 0.0
outer loop
vertex 17.9341370818479 31.5425328278692 0.850000000000003
vertex 17.8628016461143 32.0843792572265 1.60000000000001
vertex 17.8628016461143 32.0843792572265 0.850000000000003
endloop
endfacet
facet normal -0.866025403784472 -0.499999999999942 0.0
outer loop
vertex 17.6840153297751 32.5160076068993 1.60000000000001
vertex 17.8628016461143 32.0843792572265 0.850000000000003
vertex 17.8628016461143 32.0843792572265 1.60000000000001
endloop
endfacet
facet normal -0.965925826289084 -0.258819045102461 0.0
outer loop
vertex 17.8628016461143 32.0843792572265 0.850000000000003
vertex 17.6840153297751 32.5160076068993 1.60000000000001
vertex 17.6840153297751 32.5160076068993 0.850000000000003
endloop
endfacet
facet normal -0.707106781186573 -0.707106781186522 0.0
outer loop
vertex 17.3996073721349 32.8866552735341 1.60000000000001
vertex 17.6840153297751 32.5160076068993 0.850000000000003
vertex 17.6840153297751 32.5160076068993 1.60000000000001
endloop
endfacet
facet normal -0.866025403784472 -0.499999999999942 0.0
outer loop
vertex 17.6840153297751 32.5160076068993 0.850000000000003
vertex 17.3996073721349 32.8866552735341 1.60000000000001
vertex 17.3996073721349 32.8866552735341 0.850000000000003
endloop
endfacet
facet normal -0.707106781186573 -0.707106781186522 0.0
outer loop
vertex 17.3996073721349 32.8866552735341 1.60000000000001
vertex 17.0289597055 33.1710632311744 0.850000000000003
vertex 17.3996073721349 32.8866552735341 0.850000000000003
endloop
endfacet
facet normal -0.49999999999996 -0.866025403784461 0.0
outer loop
vertex 17.0289597055 33.1710632311744 0.850000000000003
vertex 17.3996073721349 32.8866552735341 1.60000000000001
vertex 17.0289597055 33.1710632311744 1.60000000000001
endloop
endfacet
endsolid model
