solid model
facet normal 6.6111714358817e-011 1.0 1.00695125227792e-010
outer loop
vertex 31.0976056410088 60.4105646803484 8.00000000385131
vertex 28.4961254223354 60.4105646809518 3.71529879273035
vertex 28.4961254223354 60.4105646808945 4.28470121497289
endloop
endfacet
facet normal 6.6111714358817e-011 1.0 1.00695125227792e-010
outer loop
vertex 28.4961254223354 60.4105646809518 3.71529879273035
vertex 31.0976056410088 60.4105646803484 8.00000000385131
vertex 29.7617049946845 60.4105646808395 4.00000000385167
endloop
endfacet
facet normal 6.6111714358817e-011 1.0 1.00695125227792e-010
outer loop
vertex 29.7617049946845 60.4105646808395 4.00000000385167
vertex 31.0976056410088 60.4105646803484 8.00000000385131
vertex 31.722286101671 60.410564680428 6.80000000385131
endloop
endfacet
facet normal 6.6111714358817e-011 1.0 1.00695125227792e-010
outer loop
vertex 31.722286101671 60.410564680428 6.80000000385131
vertex 31.0976056410088 60.4105646803484 8.00000000385131
vertex 33.894645203661 60.4105646801635 8.0000000038514
endloop
endfacet
facet normal 6.6111714358817e-011 1.0 1.00695125227792e-010
outer loop
vertex 31.722286101671 60.410564680428 6.80000000385131
vertex 33.894645203661 60.4105646801635 8.0000000038514
vertex 33.2699647429988 60.4105646803256 6.8000000038514
endloop
endfacet
facet normal 6.6111714358817e-011 1.0 1.00695125227792e-010
outer loop
vertex 33.2699647429988 60.4105646803256 6.8000000038514
vertex 33.894645203661 60.4105646801635 8.0000000038514
vertex 35.2305458499859 60.410564680478 4.00000000385102
endloop
endfacet
facet normal 6.6111714358817e-011 1.0 1.00695125227792e-010
outer loop
vertex 35.2305458499859 60.410564680478 4.00000000385102
vertex 33.894645203661 60.4105646801635 8.0000000038514
vertex 36.4961254223352 60.4105646803657 4.28470121497206
endloop
endfacet
facet normal 6.6111714358817e-011 1.0 1.00695125227792e-010
outer loop
vertex 29.7617049946845 60.4105646808395 4.00000000385167
vertex 31.0976056410092 60.410564681154 3.85165248560771e-009
vertex 28.4961254223354 60.4105646809518 3.71529879273035
endloop
endfacet
facet normal 6.6111714358817e-011 1.0 1.00695125227792e-010
outer loop
vertex 31.0976056410092 60.410564681154 3.85165248560771e-009
vertex 29.7617049946845 60.4105646808395 4.00000000385167
vertex 31.7222861016714 60.4105646809919 1.20000000385166
endloop
endfacet
facet normal 6.6111714358817e-011 1.0 1.00695125227792e-010
outer loop
vertex 31.0976056410092 60.410564681154 3.85165248560771e-009
vertex 31.7222861016714 60.4105646809919 1.20000000385166
vertex 33.8946452036609 60.410564680969 3.85174489026946e-009
endloop
endfacet
facet normal 6.6111714358817e-011 1.0 1.00695125227792e-010
outer loop
vertex 33.8946452036609 60.410564680969 3.85174489026946e-009
vertex 31.7222861016714 60.4105646809919 1.20000000385166
vertex 33.2699647429989 60.4105646808895 1.20000000385175
endloop
endfacet
facet normal 6.6111714358817e-011 1.0 1.00695125227792e-010
outer loop
vertex 33.8946452036609 60.410564680969 3.85174489026946e-009
vertex 33.2699647429989 60.4105646808895 1.20000000385175
vertex 35.2305458499859 60.410564680478 4.00000000385102
endloop
endfacet
facet normal 6.6111714358817e-011 1.0 1.00695125227792e-010
outer loop
vertex 33.8946452036609 60.410564680969 3.85174489026946e-009
vertex 35.2305458499859 60.410564680478 4.00000000385102
vertex 36.4961254223356 60.4105646804229 3.71529879273026
endloop
endfacet
facet normal 6.6111714358817e-011 1.0 1.00695125227792e-010
outer loop
vertex 36.4961254223356 60.4105646804229 3.71529879273026
vertex 35.2305458499859 60.410564680478 4.00000000385102
vertex 36.4961254223352 60.4105646803657 4.28470121497206
endloop
endfacet
facet normal 0.819152044289046 -1.1191189705455e-010 0.573576436350968
outer loop
vertex 36.4961254223352 60.4105646803657 4.28470121497206
vertex 33.894645201129 22.1105646801635 7.99999999999484
vertex 36.4961254198031 22.1105646803657 4.2847012111155
endloop
endfacet
facet normal 0.819152044289046 -1.1191189705455e-010 0.573576436350968
outer loop
vertex 33.894645201129 22.1105646801635 7.99999999999484
vertex 36.4961254223352 60.4105646803657 4.28470121497206
vertex 33.894645203661 60.4105646801635 8.0000000038514
endloop
endfacet
facet normal -0.819152044289038 1.11911897054551e-010 -0.57357643635098
outer loop
vertex 28.4961254198033 22.1105646809519 3.71529878887379
vertex 31.0976056410092 60.410564681154 3.85165248560771e-009
vertex 31.0976056384771 22.110564681154 -4.90717995826563e-012
endloop
endfacet
facet normal -0.819152044289038 1.11911897054551e-010 -0.57357643635098
outer loop
vertex 31.0976056410092 60.410564681154 3.85165248560771e-009
vertex 28.4961254198033 22.1105646809519 3.71529878887379
vertex 28.4961254223354 60.4105646809518 3.71529879273035
endloop
endfacet
facet normal -5.97053351838957e-014 -1.00695125227789e-010 1.0
outer loop
vertex 31.7222860991393 22.1105646809919 1.1999999999951
vertex 33.2699647429989 60.4105646808895 1.20000000385175
vertex 31.7222861016714 60.4105646809919 1.20000000385166
endloop
endfacet
facet normal -5.97053351838957e-014 -1.00695125227789e-010 1.0
outer loop
vertex 33.2699647429989 60.4105646808895 1.20000000385175
vertex 31.7222860991393 22.1105646809919 1.1999999999951
vertex 33.2699647404669 22.1105646808895 1.19999999999519
endloop
endfacet
facet normal -0.819152044289056 -3.6008051175912e-012 0.573576436350955
outer loop
vertex 31.0976056384768 22.1105646803485 7.99999999999475
vertex 28.4961254223354 60.4105646808945 4.28470121497289
vertex 28.4961254198033 22.1105646808945 4.28470121111633
endloop
endfacet
facet normal -0.819152044289056 -3.6008051175912e-012 0.573576436350955
outer loop
vertex 28.4961254223354 60.4105646808945 4.28470121497289
vertex 31.0976056384768 22.1105646803485 7.99999999999475
vertex 31.0976056410088 60.4105646803484 8.00000000385131
endloop
endfacet
facet normal -3.30366011292888e-014 -1.0069512522779e-010 1.0
outer loop
vertex 31.0976056384768 22.1105646803485 7.99999999999475
vertex 33.894645203661 60.4105646801635 8.0000000038514
vertex 31.0976056410088 60.4105646803484 8.00000000385131
endloop
endfacet
facet normal -3.30366011292888e-014 -1.0069512522779e-010 1.0
outer loop
vertex 33.894645203661 60.4105646801635 8.0000000038514
vertex 31.0976056384768 22.1105646803485 7.99999999999475
vertex 33.894645201129 22.1105646801635 7.99999999999484
endloop
endfacet
facet normal 3.30366011309042e-014 1.0069512522779e-010 -1.0
outer loop
vertex 33.8946452036609 60.410564680969 3.85174489026946e-009
vertex 31.0976056384771 22.110564681154 -4.90717995826563e-012
vertex 31.0976056410092 60.410564681154 3.85165248560771e-009
endloop
endfacet
facet normal 3.30366011309042e-014 1.0069512522779e-010 -1.0
outer loop
vertex 31.0976056384771 22.110564681154 -4.90717995826563e-012
vertex 33.8946452036609 60.410564680969 3.85174489026946e-009
vertex 33.8946452011289 22.110564680969 -4.81477529651705e-012
endloop
endfacet
facet normal -0.819152044288949 -3.60080511761372e-012 0.573576436351108
outer loop
vertex 35.2305458474538 22.110564680478 3.99999999999446
vertex 33.2699647429989 60.4105646808895 1.20000000385175
vertex 33.2699647404669 22.1105646808895 1.19999999999519
endloop
endfacet
facet normal -0.819152044288949 -3.60080511761372e-012 0.573576436351108
outer loop
vertex 33.2699647429989 60.4105646808895 1.20000000385175
vertex 35.2305458474538 22.110564680478 3.99999999999446
vertex 35.2305458499859 60.410564680478 4.00000000385102
endloop
endfacet
facet normal -0.819152044289043 1.1191189705455e-010 -0.573576436350973
outer loop
vertex 33.2699647404668 22.1105646803257 6.79999999999484
vertex 35.2305458499859 60.410564680478 4.00000000385102
vertex 35.2305458474538 22.110564680478 3.99999999999446
endloop
endfacet
facet normal -0.819152044289043 1.1191189705455e-010 -0.573576436350973
outer loop
vertex 35.2305458499859 60.410564680478 4.00000000385102
vertex 33.2699647404668 22.1105646803257 6.79999999999484
vertex 33.2699647429988 60.4105646803256 6.8000000038514
endloop
endfacet
facet normal 0.819152044289048 3.60080511759292e-012 -0.573576436350966
outer loop
vertex 29.7617049946845 60.4105646808395 4.00000000385167
vertex 31.722286099139 22.110564680428 6.79999999999475
vertex 29.7617049921524 22.1105646808395 3.99999999999511
endloop
endfacet
facet normal 0.819152044289048 3.60080511759292e-012 -0.573576436350966
outer loop
vertex 31.722286099139 22.110564680428 6.79999999999475
vertex 29.7617049946845 60.4105646808395 4.00000000385167
vertex 31.722286101671 60.410564680428 6.80000000385131
endloop
endfacet
facet normal 0.819152044288938 3.60080511761592e-012 -0.573576436351123
outer loop
vertex 33.8946452036609 60.410564680969 3.85174489026946e-009
vertex 36.4961254198035 22.110564680423 3.7152987888737
vertex 33.8946452011289 22.110564680969 -4.81477529651705e-012
endloop
endfacet
facet normal 0.819152044288938 3.60080511761592e-012 -0.573576436351123
outer loop
vertex 36.4961254198035 22.110564680423 3.7152987888737
vertex 33.8946452036609 60.410564680969 3.85174489026946e-009
vertex 36.4961254223356 60.4105646804229 3.71529879273026
endloop
endfacet
facet normal 1.0 -6.61117143588824e-011 6.49134300414388e-013
outer loop
vertex 36.4961254223356 60.4105646804229 3.71529879273026
vertex 36.4961254198031 22.1105646803657 4.2847012111155
vertex 36.4961254198035 22.110564680423 3.7152987888737
endloop
endfacet
facet normal 1.0 -6.61117143588824e-011 6.49134300414388e-013
outer loop
vertex 36.4961254198031 22.1105646803657 4.2847012111155
vertex 36.4961254223356 60.4105646804229 3.71529879273026
vertex 36.4961254223352 60.4105646803657 4.28470121497206
endloop
endfacet
facet normal 0.819152044289032 -1.11911897054551e-010 0.573576436350988
outer loop
vertex 31.7222861016714 60.4105646809919 1.20000000385166
vertex 29.7617049921524 22.1105646808395 3.99999999999511
vertex 31.7222860991393 22.1105646809919 1.1999999999951
endloop
endfacet
facet normal 0.819152044289032 -1.11911897054551e-010 0.573576436350988
outer loop
vertex 29.7617049921524 22.1105646808395 3.99999999999511
vertex 31.7222861016714 60.4105646809919 1.20000000385166
vertex 29.7617049946845 60.4105646808395 4.00000000385167
endloop
endfacet
facet normal 5.97053351816818e-014 1.00695125227789e-010 -1.0
outer loop
vertex 33.2699647429988 60.4105646803256 6.8000000038514
vertex 31.722286099139 22.110564680428 6.79999999999475
vertex 31.722286101671 60.410564680428 6.80000000385131
endloop
endfacet
facet normal 5.97053351816818e-014 1.00695125227789e-010 -1.0
outer loop
vertex 31.722286099139 22.110564680428 6.79999999999475
vertex 33.2699647429988 60.4105646803256 6.8000000038514
vertex 33.2699647404668 22.1105646803257 6.79999999999484
endloop
endfacet
facet normal -1.0 6.6111714358817e-011 6.65341615360397e-021
outer loop
vertex 28.4961254198033 22.1105646808945 4.28470121111633
vertex 28.4961254223354 60.4105646809518 3.71529879273035
vertex 28.4961254198033 22.1105646809519 3.71529878887379
endloop
endfacet
facet normal -1.0 6.6111714358817e-011 6.65341615360397e-021
outer loop
vertex 28.4961254223354 60.4105646809518 3.71529879273035
vertex 28.4961254198033 22.1105646808945 4.28470121111633
vertex 28.4961254223354 60.4105646808945 4.28470121497289
endloop
endfacet
facet normal -6.6111714358817e-011 -1.0 -1.00695125227792e-010
outer loop
vertex 31.0976056384771 22.110564681154 -4.90717995826563e-012
vertex 28.4961254198033 22.1105646808945 4.28470121111633
vertex 28.4961254198033 22.1105646809519 3.71529878887379
endloop
endfacet
facet normal -6.6111714358817e-011 -1.0 -1.00695125227792e-010
outer loop
vertex 28.4961254198033 22.1105646808945 4.28470121111633
vertex 31.0976056384771 22.110564681154 -4.90717995826563e-012
vertex 29.7617049921524 22.1105646808395 3.99999999999511
endloop
endfacet
facet normal -6.6111714358817e-011 -1.0 -1.00695125227792e-010
outer loop
vertex 29.7617049921524 22.1105646808395 3.99999999999511
vertex 31.0976056384771 22.110564681154 -4.90717995826563e-012
vertex 31.7222860991393 22.1105646809919 1.1999999999951
endloop
endfacet
facet normal -6.6111714358817e-011 -1.0 -1.00695125227792e-010
outer loop
vertex 31.7222860991393 22.1105646809919 1.1999999999951
vertex 31.0976056384771 22.110564681154 -4.90717995826563e-012
vertex 33.8946452011289 22.110564680969 -4.81477529651705e-012
endloop
endfacet
facet normal -6.6111714358817e-011 -1.0 -1.00695125227792e-010
outer loop
vertex 31.7222860991393 22.1105646809919 1.1999999999951
vertex 33.8946452011289 22.110564680969 -4.81477529651705e-012
vertex 33.2699647404669 22.1105646808895 1.19999999999519
endloop
endfacet
facet normal -6.6111714358817e-011 -1.0 -1.00695125227792e-010
outer loop
vertex 33.2699647404669 22.1105646808895 1.19999999999519
vertex 33.8946452011289 22.110564680969 -4.81477529651705e-012
vertex 35.2305458474538 22.110564680478 3.99999999999446
endloop
endfacet
facet normal -6.6111714358817e-011 -1.0 -1.00695125227792e-010
outer loop
vertex 35.2305458474538 22.110564680478 3.99999999999446
vertex 33.8946452011289 22.110564680969 -4.81477529651705e-012
vertex 36.4961254198035 22.110564680423 3.7152987888737
endloop
endfacet
facet normal -6.6111714358817e-011 -1.0 -1.00695125227792e-010
outer loop
vertex 35.2305458474538 22.110564680478 3.99999999999446
vertex 36.4961254198035 22.110564680423 3.7152987888737
vertex 36.4961254198031 22.1105646803657 4.2847012111155
endloop
endfacet
facet normal -6.6111714358817e-011 -1.0 -1.00695125227792e-010
outer loop
vertex 29.7617049921524 22.1105646808395 3.99999999999511
vertex 31.0976056384768 22.1105646803485 7.99999999999475
vertex 28.4961254198033 22.1105646808945 4.28470121111633
endloop
endfacet
facet normal -6.6111714358817e-011 -1.0 -1.00695125227792e-010
outer loop
vertex 31.0976056384768 22.1105646803485 7.99999999999475
vertex 29.7617049921524 22.1105646808395 3.99999999999511
vertex 31.722286099139 22.110564680428 6.79999999999475
endloop
endfacet
facet normal -6.6111714358817e-011 -1.0 -1.00695125227792e-010
outer loop
vertex 31.0976056384768 22.1105646803485 7.99999999999475
vertex 31.722286099139 22.110564680428 6.79999999999475
vertex 33.894645201129 22.1105646801635 7.99999999999484
endloop
endfacet
facet normal -6.6111714358817e-011 -1.0 -1.00695125227792e-010
outer loop
vertex 33.894645201129 22.1105646801635 7.99999999999484
vertex 31.722286099139 22.110564680428 6.79999999999475
vertex 33.2699647404668 22.1105646803257 6.79999999999484
endloop
endfacet
facet normal -6.6111714358817e-011 -1.0 -1.00695125227792e-010
outer loop
vertex 33.894645201129 22.1105646801635 7.99999999999484
vertex 33.2699647404668 22.1105646803257 6.79999999999484
vertex 35.2305458474538 22.110564680478 3.99999999999446
endloop
endfacet
facet normal -6.6111714358817e-011 -1.0 -1.00695125227792e-010
outer loop
vertex 33.894645201129 22.1105646801635 7.99999999999484
vertex 35.2305458474538 22.110564680478 3.99999999999446
vertex 36.4961254198031 22.1105646803657 4.2847012111155
endloop
endfacet
endsolid model
