solid model
facet normal -9.55782009959924e-014 -1.0 1.39534740342739e-014
outer loop
vertex 32.116546647446 24.1960253763327 5.03343331032877
vertex 28.7426175460025 24.1960253763329 2.50000000000126
vertex 30.3426175460026 24.1960253763327 2.50000000000126
endloop
endfacet
facet normal -9.55782009959924e-014 -1.0 1.39534740342739e-014
outer loop
vertex 28.7426175460025 24.1960253763329 2.50000000000126
vertex 32.116546647446 24.1960253763327 5.03343331032877
vertex 32.116546647446 24.1960253763327 7.31847012111541
endloop
endfacet
facet normal 0.0 0.0 1.0
outer loop
vertex 28.7426175460025 24.1960253763329 2.50000000000126
vertex 20.2904757488791 25.3960253763329 2.50000000000126
vertex 20.2904757488791 24.1960253763329 2.50000000000126
endloop
endfacet
facet normal 0.0 0.0 1.0
outer loop
vertex 20.2904757488791 25.3960253763329 2.50000000000126
vertex 28.7426175460025 24.1960253763329 2.50000000000126
vertex 28.7426175460025 25.3960253763329 2.50000000000126
endloop
endfacet
facet normal -0.819152044288919 8.99460027968909e-015 0.573576436351149
outer loop
vertex 32.116546647445 40.3960253763326 7.31847012111388
vertex 28.7426175460025 24.1960253763329 2.50000000000126
vertex 32.116546647446 24.1960253763327 7.31847012111541
endloop
endfacet
facet normal -0.819152044288919 8.99460027968909e-015 0.573576436351149
outer loop
vertex 28.7426175460025 24.1960253763329 2.50000000000126
vertex 32.116546647445 40.3960253763326 7.31847012111388
vertex 28.7426175460025 25.3960253763329 2.50000000000126
endloop
endfacet
facet normal -0.819152044288919 8.99460027968909e-015 0.573576436351149
outer loop
vertex 28.7426175460025 25.3960253763329 2.50000000000126
vertex 32.116546647445 40.3960253763326 7.31847012111388
vertex 27.8673581232404 25.3960253763329 1.25000000000126
endloop
endfacet
facet normal -0.819152044288919 8.99460027968909e-015 0.573576436351149
outer loop
vertex 27.8673581232404 25.3960253763329 1.25000000000126
vertex 32.116546647445 40.3960253763326 7.31847012111388
vertex 27.8673581232404 40.3960253763329 1.25000000000126
endloop
endfacet
facet normal -1.17576463490741e-013 1.49425003574952e-014 1.0
outer loop
vertex 32.1165466474458 23.2749727447544 1.25000000000219
vertex 29.4673581232402 40.3960253763331 1.25000000000126
vertex 29.4673581232402 23.2749727447537 1.25000000000125
endloop
endfacet
facet normal -1.17576463490741e-013 1.49425003574952e-014 1.0
outer loop
vertex 29.4673581232402 40.3960253763331 1.25000000000126
vertex 32.1165466474458 23.2749727447544 1.25000000000219
vertex 32.116546647445 40.3960253763322 1.25000000000126
endloop
endfacet
facet normal 0.819152044288915 -4.89019175203038e-015 -0.573576436351155
outer loop
vertex 29.4673581232402 40.3960253763331 1.25000000000126
vertex 30.3426175460026 24.1960253763327 2.50000000000126
vertex 29.4673581232402 23.2749727447537 1.25000000000125
endloop
endfacet
facet normal 0.819152044288915 -4.89019175203038e-015 -0.573576436351155
outer loop
vertex 30.3426175460026 24.1960253763327 2.50000000000126
vertex 29.4673581232402 40.3960253763331 1.25000000000126
vertex 32.116546647445 40.3960253763322 5.03343331032716
endloop
endfacet
facet normal 0.819152044288915 -4.89019175203038e-015 -0.573576436351155
outer loop
vertex 32.116546647445 40.3960253763322 5.03343331032716
vertex 32.116546647446 24.1960253763327 5.03343331032877
vertex 30.3426175460026 24.1960253763327 2.50000000000126
endloop
endfacet
facet normal 0.819152044289154 -1.42384620892266e-014 -0.573576436350815
outer loop
vertex 16.9165466474391 20.9245210765662 10.3815298788906
vertex 19.6952993413989 28.8960253763308 14.3500000000012
vertex 21.1657351716396 25.3960253763315 16.4500000000028
endloop
endfacet
facet normal 0.819152044289154 -1.42384620892266e-014 -0.573576436350815
outer loop
vertex 19.6952993413989 28.8960253763308 14.3500000000012
vertex 16.9165466474391 20.9245210765662 10.3815298788906
vertex 16.9165466474379 40.3960253763328 10.3815298788886
endloop
endfacet
facet normal 0.819152044289154 -1.42384620892266e-014 -0.573576436350815
outer loop
vertex 19.6952993413989 28.8960253763308 14.3500000000012
vertex 16.9165466474379 40.3960253763328 10.3815298788886
vertex 19.6952993413993 31.8960253763307 14.3500000000012
endloop
endfacet
facet normal 0.819152044289154 -1.42384620892266e-014 -0.573576436350815
outer loop
vertex 19.6952993413993 31.8960253763307 14.3500000000012
vertex 16.9165466474379 40.3960253763328 10.3815298788886
vertex 21.1657351716392 31.8960253763308 16.4500000000021
endloop
endfacet
facet normal 0.819152044289154 -1.42384620892266e-014 -0.573576436350815
outer loop
vertex 21.1657351716392 31.8960253763308 16.4500000000021
vertex 16.9165466474379 40.3960253763328 10.3815298788886
vertex 21.1657351716389 40.3960253763315 16.4500000000012
endloop
endfacet
facet normal 0.819152044289154 -1.42384620892266e-014 -0.573576436350815
outer loop
vertex 21.1657351716394 28.8960253763308 16.4500000000018
vertex 21.1657351716396 25.3960253763315 16.4500000000028
vertex 19.6952993413989 28.8960253763308 14.3500000000012
endloop
endfacet
facet normal -3.54253703282629e-014 -1.28559567861919e-014 -1.0
outer loop
vertex 19.5657351716388 40.3960253763314 16.4500000000012
vertex 16.9165466474383 33.0960253763314 16.4500000000014
vertex 16.9165466474379 40.3960253763325 16.4500000000012
endloop
endfacet
facet normal -3.54253703282629e-014 -1.28559567861919e-014 -1.0
outer loop
vertex 16.9165466474383 33.0960253763314 16.4500000000014
vertex 19.5657351716388 40.3960253763314 16.4500000000012
vertex 19.5657351716388 33.0960253763314 16.4500000000012
endloop
endfacet
facet normal -2.93278748927965e-014 -1.25678637734434e-013 -1.0
outer loop
vertex 12.1165466474379 27.6960253763307 8.89304629936305e-013
vertex 13.3165466474383 28.8960253763308 1.25639658676846e-012
vertex 15.3165466474383 27.6960253763308 1.45708796139843e-012
endloop
endfacet
facet normal -2.93278748927965e-014 -1.25678637734434e-013 -1.0
outer loop
vertex 13.3165466474383 28.8960253763308 1.25639658676846e-012
vertex 12.1165466474379 27.6960253763307 8.89304629936305e-013
vertex 13.3165466474383 31.8960253763308 1.25639658676846e-012
endloop
endfacet
facet normal -2.93278748927965e-014 -1.25678637734434e-013 -1.0
outer loop
vertex 15.3165466474383 27.6960253763308 1.45708796139843e-012
vertex 13.3165466474383 28.8960253763308 1.25639658676846e-012
vertex 15.3165466474383 28.8960253763308 1.25639658676846e-012
endloop
endfacet
facet normal -2.93278748927965e-014 -1.25678637734434e-013 -1.0
outer loop
vertex 12.1165466474379 33.0960253763307 8.66925375930805e-013
vertex 13.3165466474383 31.8960253763308 1.25639658676846e-012
vertex 12.1165466474379 27.6960253763307 8.89304629936305e-013
endloop
endfacet
facet normal -2.93278748927965e-014 -1.25678637734434e-013 -1.0
outer loop
vertex 13.3165466474383 31.8960253763308 1.25639658676846e-012
vertex 12.1165466474379 33.0960253763307 8.66925375930805e-013
vertex 15.3165466474383 33.0960253763308 1.25639658676846e-012
endloop
endfacet
facet normal -2.93278748927965e-014 -1.25678637734434e-013 -1.0
outer loop
vertex 13.3165466474383 31.8960253763308 1.25639658676846e-012
vertex 15.3165466474383 33.0960253763308 1.25639658676846e-012
vertex 15.3165466474383 31.8960253763308 1.25639658676846e-012
endloop
endfacet
facet normal -2.93278748927965e-014 -1.25678637734434e-013 -1.0
outer loop
vertex 33.716546647445 40.3960253763342 1.25747945389776e-012
vertex 15.3165466474383 33.0960253763308 1.25639658676846e-012
vertex 15.3165466474379 40.3960253763346 1.25603563105869e-012
endloop
endfacet
facet normal -2.93278748927965e-014 -1.25678637734434e-013 -1.0
outer loop
vertex 15.3165466474383 33.0960253763308 1.25639658676846e-012
vertex 33.716546647445 40.3960253763342 1.25747945389776e-012
vertex 15.3165466474383 31.8960253763308 1.25639658676846e-012
endloop
endfacet
facet normal -2.93278748927965e-014 -1.25678637734434e-013 -1.0
outer loop
vertex 15.3165466474383 31.8960253763308 1.25639658676846e-012
vertex 33.716546647445 40.3960253763342 1.25747945389776e-012
vertex 15.3165466474383 28.8960253763308 1.25639658676846e-012
endloop
endfacet
facet normal -2.93278748927965e-014 -1.25678637734434e-013 -1.0
outer loop
vertex 15.3165466474383 28.8960253763308 1.25639658676846e-012
vertex 33.716546647445 40.3960253763342 1.25747945389776e-012
vertex 15.3165466474383 27.6960253763308 1.45708796139843e-012
endloop
endfacet
facet normal -2.93278748927965e-014 -1.25678637734434e-013 -1.0
outer loop
vertex 15.3165466474383 27.6960253763308 1.45708796139843e-012
vertex 33.716546647445 40.3960253763342 1.25747945389776e-012
vertex 16.9165466474387 22.353920113176 3.11856709345193e-012
endloop
endfacet
facet normal -2.93278748927965e-014 -1.25678637734434e-013 -1.0
outer loop
vertex 15.3165466474383 27.6960253763308 1.45708796139843e-012
vertex 16.9165466474387 22.353920113176 3.11856709345193e-012
vertex 15.3165466474392 12.6968253763347 4.34996749731909e-012
endloop
endfacet
facet normal -2.93278748927965e-014 -1.25678637734434e-013 -1.0
outer loop
vertex 16.9165466474387 22.353920113176 3.11856709345193e-012
vertex 33.716546647445 40.3960253763342 1.25747945389776e-012
vertex 32.1165466474458 22.353920113176 3.11856709345193e-012
endloop
endfacet
facet normal -2.93278748927965e-014 -1.25678637734434e-013 -1.0
outer loop
vertex 32.1165466474458 22.353920113176 3.11856709345193e-012
vertex 33.716546647445 40.3960253763342 1.25747945389776e-012
vertex 32.1165466474461 13.274972744754 4.05488620458527e-012
endloop
endfacet
facet normal -2.93278748927965e-014 -1.25678637734434e-013 -1.0
outer loop
vertex 32.1165466474461 13.274972744754 4.05488620458527e-012
vertex 33.716546647445 40.3960253763342 1.25747945389776e-012
vertex 33.7165466474413 33.0960253763307 3.7855230061723e-013
endloop
endfacet
facet normal -2.93278748927965e-014 -1.25678637734434e-013 -1.0
outer loop
vertex 36.9165466474417 33.0960253763306 -1.12798659301916e-014
vertex 33.7165466474413 31.8960253763307 3.7855230061723e-013
vertex 33.7165466474413 33.0960253763307 3.7855230061723e-013
endloop
endfacet
facet normal -2.93278748927965e-014 -1.25678637734434e-013 -1.0
outer loop
vertex 33.7165466474413 31.8960253763307 3.7855230061723e-013
vertex 36.9165466474417 33.0960253763306 -1.12798659301916e-014
vertex 35.7165466474413 31.8960253763307 3.7855230061723e-013
endloop
endfacet
facet normal -2.93278748927965e-014 -1.25678637734434e-013 -1.0
outer loop
vertex 35.7165466474413 31.8960253763307 3.7855230061723e-013
vertex 36.9165466474417 33.0960253763306 -1.12798659301916e-014
vertex 35.7165466474413 28.8960253763307 3.7855230061723e-013
endloop
endfacet
facet normal -2.93278748927965e-014 -1.25678637734434e-013 -1.0
outer loop
vertex 35.7165466474413 28.8960253763307 3.7855230061723e-013
vertex 33.7165466474413 27.6960253763307 5.79243675247199e-013
vertex 33.7165466474413 28.8960253763307 3.7855230061723e-013
endloop
endfacet
facet normal -2.93278748927965e-014 -1.25678637734434e-013 -1.0
outer loop
vertex 33.7165466474413 27.6960253763307 5.79243675247199e-013
vertex 35.7165466474413 28.8960253763307 3.7855230061723e-013
vertex 36.9165466474417 27.6960253763306 1.18212994948408e-014
endloop
endfacet
facet normal -2.93278748927965e-014 -1.25678637734434e-013 -1.0
outer loop
vertex 36.9165466474417 27.6960253763306 1.18212994948408e-014
vertex 35.7165466474413 28.8960253763307 3.7855230061723e-013
vertex 36.9165466474417 33.0960253763306 -1.12798659301916e-014
endloop
endfacet
facet normal -2.93278748927965e-014 -1.25678637734434e-013 -1.0
outer loop
vertex 15.3165466474392 12.6968253763347 4.34996749731909e-012
vertex 16.9165466474391 13.2749727447541 4.05344238174621e-012
vertex 33.7165466474463 12.6968253763342 4.35141132015815e-012
endloop
endfacet
facet normal -2.93278748927965e-014 -1.25678637734434e-013 -1.0
outer loop
vertex 16.9165466474391 13.2749727447541 4.05344238174621e-012
vertex 15.3165466474392 12.6968253763347 4.34996749731909e-012
vertex 16.9165466474387 22.353920113176 3.11856709345193e-012
endloop
endfacet
facet normal -2.93278748927965e-014 -1.25678637734434e-013 -1.0
outer loop
vertex 33.7165466474463 12.6968253763342 4.35141132015815e-012
vertex 16.9165466474391 13.2749727447541 4.05344238174621e-012
vertex 32.1165466474461 13.274972744754 4.05488620458527e-012
endloop
endfacet
facet normal -2.93278748927965e-014 -1.25678637734434e-013 -1.0
outer loop
vertex 33.7165466474463 12.6968253763342 4.35141132015815e-012
vertex 32.1165466474461 13.274972744754 4.05488620458527e-012
vertex 33.7165466474413 27.6960253763307 5.79243675247199e-013
endloop
endfacet
facet normal -2.93278748927965e-014 -1.25678637734434e-013 -1.0
outer loop
vertex 33.7165466474413 27.6960253763307 5.79243675247199e-013
vertex 32.1165466474461 13.274972744754 4.05488620458527e-012
vertex 33.7165466474413 33.0960253763307 3.7855230061723e-013
endloop
endfacet
facet normal -2.93278748927965e-014 -1.25678637734434e-013 -1.0
outer loop
vertex 33.7165466474413 27.6960253763307 5.79243675247199e-013
vertex 33.7165466474413 33.0960253763307 3.7855230061723e-013
vertex 33.7165466474413 31.8960253763307 3.7855230061723e-013
endloop
endfacet
facet normal -2.93278748927965e-014 -1.25678637734434e-013 -1.0
outer loop
vertex 33.7165466474413 27.6960253763307 5.79243675247199e-013
vertex 33.7165466474413 31.8960253763307 3.7855230061723e-013
vertex 33.7165466474413 28.8960253763307 3.7855230061723e-013
endloop
endfacet
facet normal 2.38439992375534e-016 1.56621240040448e-012 1.0
outer loop
vertex 16.9165466474392 12.6968253763307 1.25000000000435
vertex 19.56573517164 12.9960253763329 1.25000000000389
vertex 16.9165466474391 12.9960253763329 1.25000000000389
endloop
endfacet
facet normal 2.38439992375534e-016 1.56621240040448e-012 1.0
outer loop
vertex 19.56573517164 12.9960253763329 1.25000000000389
vertex 16.9165466474392 12.6968253763307 1.25000000000435
vertex 19.5657351716401 12.6968253763314 1.25000000000435
endloop
endfacet
facet normal -0.819152044289263 -3.88975557681218e-014 -0.573576436350659
outer loop
vertex 16.9165466474379 40.396025376332 5.03343331032514
vertex 18.6904757488778 24.1960253763327 2.50000000000126
vertex 16.9165466474387 24.1960253763327 5.03343331032673
endloop
endfacet
facet normal -0.819152044289263 -3.88975557681218e-014 -0.573576436350659
outer loop
vertex 18.6904757488778 24.1960253763327 2.50000000000126
vertex 16.9165466474379 40.396025376332 5.03343331032514
vertex 19.5657351716388 40.3960253763314 1.25000000000126
endloop
endfacet
facet normal -0.819152044289263 -3.88975557681218e-014 -0.573576436350659
outer loop
vertex 19.5657351716388 40.3960253763314 1.25000000000126
vertex 19.5657351716388 23.2749727447538 1.25000000000126
vertex 18.6904757488778 24.1960253763327 2.50000000000126
endloop
endfacet
facet normal -0.819152044289145 9.21219708467831e-015 0.573576436350827
outer loop
vertex 19.5657351716388 40.3960253763314 16.4500000000012
vertex 16.9165466474383 33.0960253763314 12.6665666896781
vertex 19.5657351716388 33.0960253763314 16.4500000000012
endloop
endfacet
facet normal -0.819152044289145 9.21219708467831e-015 0.573576436350827
outer loop
vertex 16.9165466474383 33.0960253763314 12.6665666896781
vertex 19.5657351716388 40.3960253763314 16.4500000000012
vertex 16.9165466474379 40.396025376332 12.6665666896774
endloop
endfacet
facet normal 1.0 4.68993754491646e-014 -1.62574271980756e-014
outer loop
vertex 16.9165466474379 40.3960253763307 1.25000000000126
vertex 16.9165466474387 24.1960253763327 5.03343331032673
vertex 16.9165466474387 23.2749727447544 1.25000000000219
endloop
endfacet
facet normal 1.0 4.68993754491646e-014 -1.62574271980756e-014
outer loop
vertex 16.9165466474387 24.1960253763327 5.03343331032673
vertex 16.9165466474379 40.3960253763307 1.25000000000126
vertex 16.9165466474379 40.396025376332 5.03343331032514
endloop
endfacet
facet normal 1.0 4.68993754491646e-014 -1.62574271980756e-014
outer loop
vertex 16.9165466474387 22.353920113176 3.11856709345193e-012
vertex 16.9165466474391 20.9245210765662 10.3815298788906
vertex 16.9165466474391 13.2749727447541 4.05344238174621e-012
endloop
endfacet
facet normal 1.0 4.68993754491646e-014 -1.62574271980756e-014
outer loop
vertex 16.9165466474391 20.9245210765662 10.3815298788906
vertex 16.9165466474387 22.353920113176 3.11856709345193e-012
vertex 16.9165466474387 24.1960253763327 7.31847012111552
endloop
endfacet
facet normal 1.0 4.68993754491646e-014 -1.62574271980756e-014
outer loop
vertex 16.9165466474391 20.9245210765662 10.3815298788906
vertex 16.9165466474387 24.1960253763327 7.31847012111552
vertex 16.9165466474379 40.3960253763328 10.3815298788886
endloop
endfacet
facet normal 1.0 4.68993754491646e-014 -1.62574271980756e-014
outer loop
vertex 16.9165466474387 24.1960253763327 7.31847012111552
vertex 16.9165466474387 22.353920113176 3.11856709345193e-012
vertex 16.9165466474387 23.2749727447544 1.25000000000219
endloop
endfacet
facet normal 1.0 4.68993754491646e-014 -1.62574271980756e-014
outer loop
vertex 16.9165466474387 24.1960253763327 7.31847012111552
vertex 16.9165466474387 23.2749727447544 1.25000000000219
vertex 16.9165466474387 24.1960253763327 5.03343331032673
endloop
endfacet
facet normal 1.0 4.68993754491646e-014 -1.62574271980756e-014
outer loop
vertex 16.9165466474379 40.3960253763328 10.3815298788886
vertex 16.9165466474387 24.1960253763327 7.31847012111552
vertex 16.9165466474379 40.3960253763328 7.31847012111394
endloop
endfacet
facet normal 1.0 5.06326913425311e-014 -3.71039246827921e-027
outer loop
vertex 16.9165466474379 40.396025376332 12.6665666896774
vertex 16.9165466474383 33.0960253763314 16.4500000000014
vertex 16.9165466474383 33.0960253763314 12.6665666896781
endloop
endfacet
facet normal 1.0 5.06326913425311e-014 -3.71039246827921e-027
outer loop
vertex 16.9165466474383 33.0960253763314 16.4500000000014
vertex 16.9165466474379 40.396025376332 12.6665666896774
vertex 16.9165466474379 40.3960253763325 16.4500000000012
endloop
endfacet
facet normal -1.0 0.0 0.0
outer loop
vertex 15.3165466474383 31.8960253763308 11.3500000000012
vertex 15.3165466474383 28.8960253763308 1.25639658676846e-012
vertex 15.3165466474383 28.8960253763308 11.3500000000012
endloop
endfacet
facet normal -1.0 0.0 0.0
outer loop
vertex 15.3165466474383 28.8960253763308 1.25639658676846e-012
vertex 15.3165466474383 31.8960253763308 11.3500000000012
vertex 15.3165466474383 31.8960253763308 1.25639658676846e-012
endloop
endfacet
facet normal 0.819152044289162 9.17585089295017e-014 0.573576436350802
outer loop
vertex 21.1657351716389 40.3960253763315 1.25000000000126
vertex 20.2904757488791 25.3960253763329 2.50000000000126
vertex 21.1657351716396 25.3960253763329 1.25000000000203
endloop
endfacet
facet normal 0.819152044289162 9.17585089295017e-014 0.573576436350802
outer loop
vertex 20.2904757488791 24.1960253763329 2.50000000000126
vertex 16.9165466474379 40.3960253763328 7.31847012111394
vertex 16.9165466474387 24.1960253763327 7.31847012111552
endloop
endfacet
facet normal 0.819152044289162 9.17585089295017e-014 0.573576436350802
outer loop
vertex 16.9165466474379 40.3960253763328 7.31847012111394
vertex 20.2904757488791 24.1960253763329 2.50000000000126
vertex 20.2904757488791 25.3960253763329 2.50000000000126
endloop
endfacet
facet normal 0.819152044289162 9.17585089295017e-014 0.573576436350802
outer loop
vertex 16.9165466474379 40.3960253763328 7.31847012111394
vertex 20.2904757488791 25.3960253763329 2.50000000000126
vertex 21.1657351716389 40.3960253763315 1.25000000000126
endloop
endfacet
facet normal 9.55782009960134e-014 -1.0 1.3953474034206e-014
outer loop
vertex 16.9165466474387 24.1960253763327 7.31847012111552
vertex 18.6904757488778 24.1960253763327 2.50000000000126
vertex 20.2904757488791 24.1960253763329 2.50000000000126
endloop
endfacet
facet normal 9.55782009960134e-014 -1.0 1.3953474034206e-014
outer loop
vertex 18.6904757488778 24.1960253763327 2.50000000000126
vertex 16.9165466474387 24.1960253763327 7.31847012111552
vertex 16.9165466474387 24.1960253763327 5.03343331032673
endloop
endfacet
facet normal 1.17001652794514e-013 1.50633363078704e-014 1.0
outer loop
vertex 16.9165466474387 23.2749727447544 1.25000000000219
vertex 19.5657351716388 40.3960253763314 1.25000000000126
vertex 16.9165466474379 40.3960253763307 1.25000000000126
endloop
endfacet
facet normal 1.17001652794514e-013 1.50633363078704e-014 1.0
outer loop
vertex 19.5657351716388 40.3960253763314 1.25000000000126
vertex 16.9165466474387 23.2749727447544 1.25000000000219
vertex 19.5657351716388 23.2749727447538 1.25000000000126
endloop
endfacet
facet normal -1.0 -4.4197768461381e-014 2.46946151881056e-016
outer loop
vertex 32.1165466474458 20.9245210765663 10.3815298788906
vertex 32.1165466474458 22.353920113176 3.11856709345193e-012
vertex 32.1165466474461 13.274972744754 4.05488620458527e-012
endloop
endfacet
facet normal -1.0 -4.4197768461381e-014 2.46946151881056e-016
outer loop
vertex 32.1165466474458 22.353920113176 3.11856709345193e-012
vertex 32.1165466474458 20.9245210765663 10.3815298788906
vertex 32.116546647446 24.1960253763327 7.31847012111541
endloop
endfacet
facet normal -1.0 -4.4197768461381e-014 2.46946151881056e-016
outer loop
vertex 32.116546647446 24.1960253763327 7.31847012111541
vertex 32.1165466474458 20.9245210765663 10.3815298788906
vertex 32.116546647445 40.3960253763326 10.3815298788887
endloop
endfacet
facet normal -1.0 -4.4197768461381e-014 2.46946151881056e-016
outer loop
vertex 32.1165466474458 22.353920113176 3.11856709345193e-012
vertex 32.116546647446 24.1960253763327 7.31847012111541
vertex 32.1165466474458 23.2749727447544 1.25000000000219
endloop
endfacet
facet normal -1.0 -4.4197768461381e-014 2.46946151881056e-016
outer loop
vertex 32.116546647446 24.1960253763327 7.31847012111541
vertex 32.116546647445 40.3960253763326 10.3815298788887
vertex 32.116546647445 40.3960253763326 7.31847012111388
endloop
endfacet
facet normal -1.0 -4.4197768461381e-014 2.46946151881056e-016
outer loop
vertex 32.1165466474458 23.2749727447544 1.25000000000219
vertex 32.116546647446 24.1960253763327 5.03343331032877
vertex 32.116546647445 40.3960253763322 1.25000000000126
endloop
endfacet
facet normal -1.0 -4.4197768461381e-014 2.46946151881056e-016
outer loop
vertex 32.116546647446 24.1960253763327 5.03343331032877
vertex 32.1165466474458 23.2749727447544 1.25000000000219
vertex 32.116546647446 24.1960253763327 7.31847012111541
endloop
endfacet
facet normal -1.0 -4.4197768461381e-014 2.46946151881056e-016
outer loop
vertex 32.116546647445 40.3960253763322 1.25000000000126
vertex 32.116546647446 24.1960253763327 5.03343331032877
vertex 32.116546647445 40.3960253763322 5.03343331032716
endloop
endfacet
facet normal -5.32146084350513e-014 -1.54311453771605e-013 -1.0
outer loop
vertex 27.8673581232406 24.1960253763315 16.4500000000022
vertex 21.1657351716401 12.6968253763315 16.4500000000043
vertex 21.1657351716396 24.1960253763315 16.4500000000029
endloop
endfacet
facet normal -5.32146084350513e-014 -1.54311453771605e-013 -1.0
outer loop
vertex 21.1657351716401 12.6968253763315 16.4500000000043
vertex 27.8673581232406 24.1960253763315 16.4500000000022
vertex 27.8673581232417 12.6968253763329 16.4500000000043
endloop
endfacet
facet normal 3.4062856357126e-017 1.56138678931957e-012 1.0
outer loop
vertex 29.4673581232415 12.6968253763331 1.25000000000435
vertex 32.1165466474461 12.9960253763329 1.25000000000388
vertex 29.4673581232414 12.9960253763329 1.25000000000388
endloop
endfacet
facet normal 3.4062856357126e-017 1.56138678931957e-012 1.0
outer loop
vertex 32.1165466474461 12.9960253763329 1.25000000000388
vertex 29.4673581232415 12.6968253763331 1.25000000000435
vertex 32.1165466474463 12.6968253763322 1.25000000000435
endloop
endfacet
facet normal 2.67958175046981e-015 1.76587205938819e-012 1.0
outer loop
vertex 21.1657351716401 12.6968253763315 1.25000000000435
vertex 27.8673581232413 12.9960253763329 1.25000000000381
vertex 21.16573517164 12.9960253763329 1.25000000000384
endloop
endfacet
facet normal 2.67958175046981e-015 1.76587205938819e-012 1.0
outer loop
vertex 27.8673581232413 12.9960253763329 1.25000000000381
vertex 21.1657351716401 12.6968253763315 1.25000000000435
vertex 27.8673581232417 12.6968253763329 1.25000000000435
endloop
endfacet
facet normal 0.0 -0.805055837353368 0.59319903804985
outer loop
vertex 32.1165466474461 15.7838183418361 5.03343331032966
vertex 29.4673581232414 12.9960253763329 1.25000000000388
vertex 32.1165466474461 12.9960253763329 1.25000000000388
endloop
endfacet
facet normal 1.0 1.80016273845655e-014 2.35352583038846e-014
outer loop
vertex 16.9165466474392 17.4675296760997 7.31847012111632
vertex 16.9165466474392 12.6968253763328 10.3815298788917
vertex 16.9165466474392 12.6968253763328 7.31847012111703
endloop
endfacet
facet normal 1.0 1.80016273845655e-014 2.35352583038846e-014
outer loop
vertex 16.9165466474392 12.6968253763328 10.3815298788917
vertex 16.9165466474392 17.4675296760997 7.31847012111632
vertex 16.9165466474391 19.724521076565 10.3815298788907
endloop
endfacet
facet normal 1.49109165886401e-016 -0.805055837353375 0.59319903804984
outer loop
vertex 16.9165466474391 15.7838183418345 5.03343331032762
vertex 16.9165466474391 12.9960253763329 1.25000000000389
vertex 19.56573517164 12.9960253763329 1.25000000000389
endloop
endfacet
facet normal -1.0 -6.04438238630534e-014 2.2268777212702e-014
outer loop
vertex 32.116546647446 19.724521076565 10.3815298788908
vertex 32.1165466474463 12.6968253763326 7.31847012111697
vertex 32.1165466474463 12.6968253763326 10.3815298788918
endloop
endfacet
facet normal -1.0 -6.04438238630534e-014 2.2268777212702e-014
outer loop
vertex 32.1165466474463 12.6968253763326 7.31847012111697
vertex 32.116546647446 19.724521076565 10.3815298788908
vertex 32.116546647446 17.4675296760996 7.31847012111621
endloop
endfacet
facet normal 0.819152044289161 -3.83699911341131e-014 -0.573576436350804
outer loop
vertex 16.9165466474392 12.6968253763328 10.3815298788917
vertex 21.1657351716396 24.1960253763315 16.4500000000029
vertex 21.1657351716401 12.6968253763315 16.4500000000043
endloop
endfacet
facet normal 0.819152044289161 -3.83699911341131e-014 -0.573576436350804
outer loop
vertex 21.1657351716396 24.1960253763315 16.4500000000029
vertex 16.9165466474392 12.6968253763328 10.3815298788917
vertex 16.9165466474391 19.724521076565 10.3815298788907
endloop
endfacet
facet normal 0.819152044289173 9.11009438414332e-014 0.573576436350787
outer loop
vertex 21.16573517164 12.9960253763329 1.25000000000384
vertex 16.9165466474392 12.6968253763328 7.31847012111703
vertex 21.1657351716401 12.6968253763315 1.25000000000435
endloop
endfacet
facet normal 0.819152044289173 9.11009438414332e-014 0.573576436350787
outer loop
vertex 16.9165466474392 12.6968253763328 7.31847012111703
vertex 21.16573517164 12.9960253763329 1.25000000000384
vertex 16.9165466474392 17.4675296760997 7.31847012111632
endloop
endfacet
facet normal -0.819152044288919 2.82094120908701e-014 0.57357643635115
outer loop
vertex 32.116546647446 17.4675296760996 7.31847012111621
vertex 27.8673581232417 12.6968253763329 1.25000000000435
vertex 32.1165466474463 12.6968253763326 7.31847012111697
endloop
endfacet
facet normal -0.819152044288919 2.82094120908701e-014 0.57357643635115
outer loop
vertex 27.8673581232417 12.6968253763329 1.25000000000435
vertex 32.116546647446 17.4675296760996 7.31847012111621
vertex 27.8673581232413 12.9960253763329 1.25000000000381
endloop
endfacet
facet normal -1.0 -6.50584285859293e-014 2.39688947421864e-014
outer loop
vertex 32.1165466474461 15.7838183418361 5.03343331032966
vertex 32.1165466474463 12.6968253763322 1.25000000000435
vertex 32.1165466474463 12.6968253763322 5.03343331033025
endloop
endfacet
facet normal -1.0 -6.50584285859293e-014 2.39688947421864e-014
outer loop
vertex 32.1165466474463 12.6968253763322 1.25000000000435
vertex 32.1165466474461 15.7838183418361 5.03343331032966
vertex 32.1165466474461 12.9960253763329 1.25000000000388
endloop
endfacet
facet normal -0.819152044289179 -1.74311166892109e-013 -0.573576436350778
outer loop
vertex 16.9165466474392 12.696825376332 5.03343331032823
vertex 19.56573517164 12.9960253763329 1.25000000000389
vertex 19.5657351716401 12.6968253763314 1.25000000000435
endloop
endfacet
facet normal -0.819152044289179 -1.74311166892109e-013 -0.573576436350778
outer loop
vertex 19.56573517164 12.9960253763329 1.25000000000389
vertex 16.9165466474392 12.696825376332 5.03343331032823
vertex 16.9165466474391 15.7838183418345 5.03343331032762
endloop
endfacet
facet normal 1.0 6.50584285859828e-014 -2.39688947422166e-014
outer loop
vertex 16.9165466474391 12.9960253763329 1.25000000000389
vertex 16.9165466474392 12.696825376332 5.03343331032823
vertex 16.9165466474392 12.6968253763307 1.25000000000435
endloop
endfacet
facet normal 1.0 6.50584285859828e-014 -2.39688947422166e-014
outer loop
vertex 16.9165466474392 12.696825376332 5.03343331032823
vertex 16.9165466474391 12.9960253763329 1.25000000000389
vertex 16.9165466474391 15.7838183418345 5.03343331032762
endloop
endfacet
facet normal 0.81915204428891 -6.37615784057806e-014 -0.573576436351163
outer loop
vertex 29.4673581232415 12.6968253763331 1.25000000000435
vertex 32.1165466474461 15.7838183418361 5.03343331032966
vertex 32.1165466474463 12.6968253763322 5.03343331033025
endloop
endfacet
facet normal 0.81915204428891 -6.37615784057806e-014 -0.573576436351163
outer loop
vertex 32.1165466474461 15.7838183418361 5.03343331032966
vertex 29.4673581232415 12.6968253763331 1.25000000000435
vertex 29.4673581232414 12.9960253763329 1.25000000000388
endloop
endfacet
facet normal -9.1260147972226e-016 -0.805055837353326 0.593199038049907
outer loop
vertex 32.1165466474458 23.2749727447544 1.25000000000219
vertex 16.9165466474387 22.353920113176 3.11856709345193e-012
vertex 32.1165466474458 22.353920113176 3.11856709345193e-012
endloop
endfacet
facet normal -9.1260147972226e-016 -0.805055837353326 0.593199038049907
outer loop
vertex 16.9165466474387 22.353920113176 3.11856709345193e-012
vertex 32.1165466474458 23.2749727447544 1.25000000000219
vertex 29.4673581232402 23.2749727447537 1.25000000000125
endloop
endfacet
facet normal -9.1260147972226e-016 -0.805055837353326 0.593199038049907
outer loop
vertex 30.3426175460026 24.1960253763327 2.50000000000126
vertex 19.5657351716388 23.2749727447538 1.25000000000126
vertex 29.4673581232402 23.2749727447537 1.25000000000125
endloop
endfacet
facet normal -9.1260147972226e-016 -0.805055837353326 0.593199038049907
outer loop
vertex 19.5657351716388 23.2749727447538 1.25000000000126
vertex 30.3426175460026 24.1960253763327 2.50000000000126
vertex 18.6904757488778 24.1960253763327 2.50000000000126
endloop
endfacet
facet normal -9.1260147972226e-016 -0.805055837353326 0.593199038049907
outer loop
vertex 18.6904757488778 24.1960253763327 2.50000000000126
vertex 30.3426175460026 24.1960253763327 2.50000000000126
vertex 28.7426175460025 24.1960253763329 2.50000000000126
endloop
endfacet
facet normal -9.1260147972226e-016 -0.805055837353326 0.593199038049907
outer loop
vertex 18.6904757488778 24.1960253763327 2.50000000000126
vertex 28.7426175460025 24.1960253763329 2.50000000000126
vertex 20.2904757488791 24.1960253763329 2.50000000000126
endloop
endfacet
facet normal -9.1260147972226e-016 -0.805055837353326 0.593199038049907
outer loop
vertex 16.9165466474387 22.353920113176 3.11856709345193e-012
vertex 19.5657351716388 23.2749727447538 1.25000000000126
vertex 16.9165466474387 23.2749727447544 1.25000000000219
endloop
endfacet
facet normal -9.1260147972226e-016 -0.805055837353326 0.593199038049907
outer loop
vertex 19.5657351716388 23.2749727447538 1.25000000000126
vertex 16.9165466474387 22.353920113176 3.11856709345193e-012
vertex 29.4673581232402 23.2749727447537 1.25000000000125
endloop
endfacet
facet normal 5.7668234887468e-014 2.57902854627915e-014 1.0
outer loop
vertex 21.1657351716396 25.3960253763329 1.25000000000203
vertex 27.8673581232404 40.3960253763329 1.25000000000126
vertex 21.1657351716389 40.3960253763315 1.25000000000126
endloop
endfacet
facet normal 5.7668234887468e-014 2.57902854627915e-014 1.0
outer loop
vertex 27.8673581232404 40.3960253763329 1.25000000000126
vertex 21.1657351716396 25.3960253763329 1.25000000000203
vertex 27.8673581232404 25.3960253763329 1.25000000000126
endloop
endfacet
facet normal -4.46647343260268e-014 1.0 -1.03135645536871e-013
outer loop
vertex 29.4673581232402 40.3960253763331 1.25000000000126
vertex 27.8673581232404 40.3960253763329 1.25000000000126
vertex 32.116546647445 40.3960253763322 5.03343331032716
endloop
endfacet
facet normal -4.46647343260268e-014 1.0 -1.03135645536871e-013
outer loop
vertex 27.8673581232404 40.3960253763329 1.25000000000126
vertex 29.4673581232402 40.3960253763331 1.25000000000126
vertex 21.1657351716389 40.3960253763315 1.25000000000126
endloop
endfacet
facet normal -4.46647343260268e-014 1.0 -1.03135645536871e-013
outer loop
vertex 32.116546647445 40.3960253763322 5.03343331032716
vertex 27.8673581232404 40.3960253763329 1.25000000000126
vertex 32.116546647445 40.3960253763326 7.31847012111388
endloop
endfacet
facet normal -4.46647343260268e-014 1.0 -1.03135645536871e-013
outer loop
vertex 19.5657351716388 40.3960253763314 1.25000000000126
vertex 16.9165466474379 40.3960253763328 7.31847012111394
vertex 21.1657351716389 40.3960253763315 1.25000000000126
endloop
endfacet
facet normal -4.46647343260268e-014 1.0 -1.03135645536871e-013
outer loop
vertex 16.9165466474379 40.3960253763328 7.31847012111394
vertex 19.5657351716388 40.3960253763314 1.25000000000126
vertex 16.9165466474379 40.396025376332 5.03343331032514
endloop
endfacet
facet normal -4.46647343260268e-014 1.0 -1.03135645536871e-013
outer loop
vertex 15.3165466474379 40.3960253763346 1.25603563105869e-012
vertex 16.9165466474379 40.3960253763307 1.25000000000126
vertex 33.716546647445 40.3960253763342 1.25747945389776e-012
endloop
endfacet
facet normal -4.46647343260268e-014 1.0 -1.03135645536871e-013
outer loop
vertex 16.9165466474379 40.3960253763307 1.25000000000126
vertex 15.3165466474379 40.3960253763346 1.25603563105869e-012
vertex 15.3165466474379 40.3960253763346 17.7000000000012
endloop
endfacet
facet normal -4.46647343260268e-014 1.0 -1.03135645536871e-013
outer loop
vertex 33.716546647445 40.3960253763342 1.25747945389776e-012
vertex 16.9165466474379 40.3960253763307 1.25000000000126
vertex 21.1657351716389 40.3960253763315 1.25000000000126
endloop
endfacet
facet normal -4.46647343260268e-014 1.0 -1.03135645536871e-013
outer loop
vertex 33.716546647445 40.3960253763342 1.25747945389776e-012
vertex 21.1657351716389 40.3960253763315 1.25000000000126
vertex 29.4673581232402 40.3960253763331 1.25000000000126
endloop
endfacet
facet normal -4.46647343260268e-014 1.0 -1.03135645536871e-013
outer loop
vertex 33.716546647445 40.3960253763342 1.25747945389776e-012
vertex 29.4673581232402 40.3960253763331 1.25000000000126
vertex 32.116546647445 40.3960253763322 1.25000000000126
endloop
endfacet
facet normal -4.46647343260268e-014 1.0 -1.03135645536871e-013
outer loop
vertex 21.1657351716389 40.3960253763315 1.25000000000126
vertex 16.9165466474379 40.3960253763307 1.25000000000126
vertex 19.5657351716388 40.3960253763314 1.25000000000126
endloop
endfacet
facet normal -4.46647343260268e-014 1.0 -1.03135645536871e-013
outer loop
vertex 16.9165466474379 40.3960253763307 1.25000000000126
vertex 15.3165466474379 40.3960253763346 17.7000000000012
vertex 16.9165466474379 40.396025376332 5.03343331032514
endloop
endfacet
facet normal -4.46647343260268e-014 1.0 -1.03135645536871e-013
outer loop
vertex 16.9165466474379 40.396025376332 5.03343331032514
vertex 15.3165466474379 40.3960253763346 17.7000000000012
vertex 16.9165466474379 40.3960253763328 7.31847012111394
endloop
endfacet
facet normal -4.46647343260268e-014 1.0 -1.03135645536871e-013
outer loop
vertex 16.9165466474379 40.3960253763328 7.31847012111394
vertex 15.3165466474379 40.3960253763346 17.7000000000012
vertex 16.9165466474379 40.3960253763328 10.3815298788886
endloop
endfacet
facet normal -4.46647343260268e-014 1.0 -1.03135645536871e-013
outer loop
vertex 16.9165466474379 40.3960253763328 10.3815298788886
vertex 15.3165466474379 40.3960253763346 17.7000000000012
vertex 16.9165466474379 40.396025376332 12.6665666896774
endloop
endfacet
facet normal -4.46647343260268e-014 1.0 -1.03135645536871e-013
outer loop
vertex 16.9165466474379 40.396025376332 12.6665666896774
vertex 15.3165466474379 40.3960253763346 17.7000000000012
vertex 16.9165466474379 40.3960253763325 16.4500000000012
endloop
endfacet
facet normal -4.46647343260268e-014 1.0 -1.03135645536871e-013
outer loop
vertex 16.9165466474379 40.3960253763325 16.4500000000012
vertex 15.3165466474379 40.3960253763346 17.7000000000012
vertex 19.5657351716388 40.3960253763314 16.4500000000012
endloop
endfacet
facet normal -4.46647343260268e-014 1.0 -1.03135645536871e-013
outer loop
vertex 19.5657351716388 40.3960253763314 16.4500000000012
vertex 15.3165466474379 40.3960253763346 17.7000000000012
vertex 21.1657351716389 40.3960253763315 16.4500000000012
endloop
endfacet
facet normal -4.46647343260268e-014 1.0 -1.03135645536871e-013
outer loop
vertex 21.1657351716389 40.3960253763315 16.4500000000012
vertex 15.3165466474379 40.3960253763346 17.7000000000012
vertex 27.8673581232404 40.3960253763329 16.4500000000012
endloop
endfacet
facet normal -4.46647343260268e-014 1.0 -1.03135645536871e-013
outer loop
vertex 27.8673581232404 40.3960253763329 16.4500000000012
vertex 15.3165466474379 40.3960253763346 17.7000000000012
vertex 29.4673581232404 40.3960253763335 16.4500000000012
endloop
endfacet
facet normal -4.46647343260268e-014 1.0 -1.03135645536871e-013
outer loop
vertex 29.4673581232404 40.3960253763335 16.4500000000012
vertex 15.3165466474379 40.3960253763346 17.7000000000012
vertex 32.116546647445 40.3960253763339 16.4500000000012
endloop
endfacet
facet normal -4.46647343260268e-014 1.0 -1.03135645536871e-013
outer loop
vertex 32.116546647445 40.3960253763322 1.25000000000126
vertex 33.716546647445 40.3960253763342 17.7000000000012
vertex 33.716546647445 40.3960253763342 1.25747945389776e-012
endloop
endfacet
facet normal -4.46647343260268e-014 1.0 -1.03135645536871e-013
outer loop
vertex 33.716546647445 40.3960253763342 17.7000000000012
vertex 32.116546647445 40.3960253763322 1.25000000000126
vertex 32.116546647445 40.3960253763322 5.03343331032716
endloop
endfacet
facet normal -4.46647343260268e-014 1.0 -1.03135645536871e-013
outer loop
vertex 33.716546647445 40.3960253763342 17.7000000000012
vertex 32.116546647445 40.3960253763322 5.03343331032716
vertex 32.116546647445 40.3960253763326 7.31847012111388
endloop
endfacet
facet normal -4.46647343260268e-014 1.0 -1.03135645536871e-013
outer loop
vertex 33.716546647445 40.3960253763342 17.7000000000012
vertex 32.116546647445 40.3960253763326 7.31847012111388
vertex 32.116546647445 40.3960253763326 10.3815298788887
endloop
endfacet
facet normal -4.46647343260268e-014 1.0 -1.03135645536871e-013
outer loop
vertex 33.716546647445 40.3960253763342 17.7000000000012
vertex 32.116546647445 40.3960253763326 10.3815298788887
vertex 32.116546647445 40.3960253763329 12.6665666896754
endloop
endfacet
facet normal -4.46647343260268e-014 1.0 -1.03135645536871e-013
outer loop
vertex 33.716546647445 40.3960253763342 17.7000000000012
vertex 32.116546647445 40.3960253763329 12.6665666896754
vertex 32.116546647445 40.3960253763339 16.4500000000012
endloop
endfacet
facet normal -4.46647343260268e-014 1.0 -1.03135645536871e-013
outer loop
vertex 33.716546647445 40.3960253763342 17.7000000000012
vertex 32.116546647445 40.3960253763339 16.4500000000012
vertex 15.3165466474379 40.3960253763346 17.7000000000012
endloop
endfacet
facet normal -4.46647343260268e-014 1.0 -1.03135645536871e-013
outer loop
vertex 27.8673581232404 40.3960253763329 16.4500000000012
vertex 32.116546647445 40.3960253763329 12.6665666896754
vertex 32.116546647445 40.3960253763326 10.3815298788887
endloop
endfacet
facet normal -4.46647343260268e-014 1.0 -1.03135645536871e-013
outer loop
vertex 32.116546647445 40.3960253763329 12.6665666896754
vertex 27.8673581232404 40.3960253763329 16.4500000000012
vertex 29.4673581232404 40.3960253763335 16.4500000000012
endloop
endfacet
facet normal -4.46647343260268e-014 1.0 -1.03135645536871e-013
outer loop
vertex 16.9165466474379 40.396025376332 12.6665666896774
vertex 21.1657351716389 40.3960253763315 16.4500000000012
vertex 16.9165466474379 40.3960253763328 10.3815298788886
endloop
endfacet
facet normal -4.46647343260268e-014 1.0 -1.03135645536871e-013
outer loop
vertex 21.1657351716389 40.3960253763315 16.4500000000012
vertex 16.9165466474379 40.396025376332 12.6665666896774
vertex 19.5657351716388 40.3960253763314 16.4500000000012
endloop
endfacet
facet normal 0.0 1.0 0.0
outer loop
vertex 21.1657351716396 25.3960253763329 1.25000000000203
vertex 28.7426175460025 25.3960253763329 2.50000000000126
vertex 27.8673581232404 25.3960253763329 1.25000000000126
endloop
endfacet
facet normal 0.0 1.0 0.0
outer loop
vertex 28.7426175460025 25.3960253763329 2.50000000000126
vertex 21.1657351716396 25.3960253763329 1.25000000000203
vertex 20.2904757488791 25.3960253763329 2.50000000000126
endloop
endfacet
facet normal -6.11305529457094e-015 -1.0 2.51340484604667e-016
outer loop
vertex 15.3165466474383 31.8960253763308 11.3500000000012
vertex 13.3165466474383 31.8960253763308 1.25639658676846e-012
vertex 15.3165466474383 31.8960253763308 1.25639658676846e-012
endloop
endfacet
facet normal -6.11305529457094e-015 -1.0 2.51340484604667e-016
outer loop
vertex 13.3165466474383 31.8960253763308 1.25639658676846e-012
vertex 15.3165466474383 31.8960253763308 11.3500000000012
vertex 13.3165466474383 31.8960253763308 12.7225775475357
endloop
endfacet
facet normal -6.11305529457094e-015 -1.0 2.51340484604667e-016
outer loop
vertex 13.3165466474383 31.8960253763308 12.7225775475357
vertex 15.3165466474383 31.8960253763308 11.3500000000012
vertex 18.0952993413993 31.8960253763307 14.3500000000012
endloop
endfacet
facet normal -6.11305529457094e-015 -1.0 2.51340484604667e-016
outer loop
vertex 13.3165466474383 31.8960253763308 12.7225775475357
vertex 18.0952993413993 31.8960253763307 14.3500000000012
vertex 16.7690750412114 31.8960253763308 16.4500000000014
endloop
endfacet
facet normal -6.11305529457094e-015 -1.0 2.51340484604667e-016
outer loop
vertex 16.7690750412114 31.8960253763308 16.4500000000014
vertex 18.0952993413993 31.8960253763307 14.3500000000012
vertex 19.6952993413993 31.8960253763307 14.3500000000012
endloop
endfacet
facet normal -6.11305529457094e-015 -1.0 2.51340484604667e-016
outer loop
vertex 16.7690750412114 31.8960253763308 16.4500000000014
vertex 19.6952993413993 31.8960253763307 14.3500000000012
vertex 21.1657351716392 31.8960253763308 16.4500000000021
endloop
endfacet
facet normal -9.02389274416053e-016 -2.88764567812907e-015 1.0
outer loop
vertex 19.6952993413989 28.8960253763308 14.3500000000012
vertex 18.0952993413993 31.8960253763307 14.3500000000012
vertex 18.0952993413993 28.8960253763308 14.3500000000012
endloop
endfacet
facet normal -9.02389274416053e-016 -2.88764567812907e-015 1.0
outer loop
vertex 18.0952993413993 31.8960253763307 14.3500000000012
vertex 19.6952993413989 28.8960253763308 14.3500000000012
vertex 19.6952993413993 31.8960253763307 14.3500000000012
endloop
endfacet
facet normal 0.0 1.0 0.0
outer loop
vertex 13.3165466474383 28.8960253763308 12.7225775475357
vertex 15.3165466474383 28.8960253763308 1.25639658676846e-012
vertex 13.3165466474383 28.8960253763308 1.25639658676846e-012
endloop
endfacet
facet normal 0.0 1.0 0.0
outer loop
vertex 15.3165466474383 28.8960253763308 1.25639658676846e-012
vertex 13.3165466474383 28.8960253763308 12.7225775475357
vertex 15.3165466474383 28.8960253763308 11.3500000000012
endloop
endfacet
facet normal 0.0 1.0 0.0
outer loop
vertex 15.3165466474383 28.8960253763308 11.3500000000012
vertex 13.3165466474383 28.8960253763308 12.7225775475357
vertex 18.0952993413993 28.8960253763308 14.3500000000012
endloop
endfacet
facet normal 0.0 1.0 0.0
outer loop
vertex 18.0952993413993 28.8960253763308 14.3500000000012
vertex 13.3165466474383 28.8960253763308 12.7225775475357
vertex 16.7690750412114 28.8960253763308 16.4500000000014
endloop
endfacet
facet normal 0.0 1.0 0.0
outer loop
vertex 18.0952993413993 28.8960253763308 14.3500000000012
vertex 21.1657351716394 28.8960253763308 16.4500000000018
vertex 19.6952993413989 28.8960253763308 14.3500000000012
endloop
endfacet
facet normal 0.0 1.0 0.0
outer loop
vertex 21.1657351716394 28.8960253763308 16.4500000000018
vertex 18.0952993413993 28.8960253763308 14.3500000000012
vertex 16.7690750412114 28.8960253763308 16.4500000000014
endloop
endfacet
facet normal 0.0 1.0 0.0
outer loop
vertex 16.9165466474383 33.0960253763314 16.4500000000014
vertex 19.5657351716388 33.0960253763314 16.4500000000012
vertex 16.9165466474383 33.0960253763314 12.6665666896781
endloop
endfacet
facet normal -0.819152044289147 2.17617886694911e-014 0.573576436350825
outer loop
vertex 20.4409945944017 27.6960253763307 17.7000000000043
vertex 15.3165466474392 12.6968253763324 10.3815298788917
vertex 20.4409945944017 12.6968253763312 17.7000000000043
endloop
endfacet
facet normal -0.819152044289147 2.17617886694911e-014 0.573576436350825
outer loop
vertex 15.3165466474392 12.6968253763324 10.3815298788917
vertex 20.4409945944017 27.6960253763307 17.7000000000043
vertex 15.3165466474392 27.6960253763307 10.3815298788917
endloop
endfacet
facet normal 4.7589768508894e-014 -1.0 3.11241875941916e-015
outer loop
vertex 15.3165466474383 27.6960253763308 1.45708796139843e-012
vertex 12.1165466474379 27.6960253763307 17.700000000002
vertex 12.1165466474379 27.6960253763307 8.89304629936305e-013
endloop
endfacet
facet normal 4.7589768508894e-014 -1.0 3.11241875941916e-015
outer loop
vertex 12.1165466474379 27.6960253763307 17.700000000002
vertex 15.3165466474383 27.6960253763308 1.45708796139843e-012
vertex 15.3165466474392 27.6960253763307 10.3815298788917
endloop
endfacet
facet normal 4.7589768508894e-014 -1.0 3.11241875941916e-015
outer loop
vertex 12.1165466474379 27.6960253763307 17.700000000002
vertex 15.3165466474392 27.6960253763307 10.3815298788917
vertex 20.4409945944017 27.6960253763307 17.7000000000043
endloop
endfacet
facet normal 5.37605852809263e-027 -5.14238271447484e-014 -1.0
outer loop
vertex 32.116546647445 40.3960253763339 16.4500000000012
vertex 29.4673581232408 33.0960253763314 16.4500000000016
vertex 29.4673581232404 40.3960253763335 16.4500000000012
endloop
endfacet
facet normal 5.37605852809263e-027 -5.14238271447484e-014 -1.0
outer loop
vertex 29.4673581232408 33.0960253763314 16.4500000000016
vertex 32.116546647445 40.3960253763339 16.4500000000012
vertex 32.1165466474454 33.0960253763315 16.4500000000016
endloop
endfacet
facet normal -1.0 -5.06326913425237e-014 6.79713270775546e-027
outer loop
vertex 32.116546647445 40.3960253763339 16.4500000000012
vertex 32.1165466474454 33.0960253763315 12.666566689676
vertex 32.1165466474454 33.0960253763315 16.4500000000016
endloop
endfacet
facet normal -1.0 -5.06326913425237e-014 6.79713270775546e-027
outer loop
vertex 32.1165466474454 33.0960253763315 12.666566689676
vertex 32.116546647445 40.3960253763339 16.4500000000012
vertex 32.116546647445 40.3960253763329 12.6665666896754
endloop
endfacet
facet normal 0.819152044288911 8.11816105776232e-014 0.573576436351162
outer loop
vertex 32.1165466474454 33.0960253763315 12.666566689676
vertex 29.4673581232404 40.3960253763335 16.4500000000012
vertex 29.4673581232408 33.0960253763314 16.4500000000016
endloop
endfacet
facet normal 0.819152044288911 8.11816105776232e-014 0.573576436351162
outer loop
vertex 29.4673581232404 40.3960253763335 16.4500000000012
vertex 32.1165466474454 33.0960253763315 12.666566689676
vertex 32.116546647445 40.3960253763329 12.6665666896754
endloop
endfacet
facet normal -3.48803646308537e-014 1.0 0.0
outer loop
vertex 32.1165466474454 33.0960253763315 16.4500000000016
vertex 32.1165466474454 33.0960253763315 12.666566689676
vertex 29.4673581232408 33.0960253763314 16.4500000000016
endloop
endfacet
facet normal 4.50427338641075e-015 -0.805055837353381 0.593199038049833
outer loop
vertex 32.116546647446 17.4675296760996 7.31847012111621
vertex 21.16573517164 12.9960253763329 1.25000000000384
vertex 27.8673581232413 12.9960253763329 1.25000000000381
endloop
endfacet
facet normal 4.50427338641075e-015 -0.805055837353381 0.593199038049833
outer loop
vertex 21.16573517164 12.9960253763329 1.25000000000384
vertex 32.116546647446 17.4675296760996 7.31847012111621
vertex 16.9165466474392 17.4675296760997 7.31847012111632
endloop
endfacet
facet normal 4.50427338641075e-015 -0.805055837353381 0.593199038049833
outer loop
vertex 16.9165466474392 17.4675296760997 7.31847012111632
vertex 32.116546647446 17.4675296760996 7.31847012111621
vertex 32.116546647446 19.724521076565 10.3815298788908
endloop
endfacet
facet normal 4.50427338641075e-015 -0.805055837353381 0.593199038049833
outer loop
vertex 16.9165466474392 17.4675296760997 7.31847012111632
vertex 32.116546647446 19.724521076565 10.3815298788908
vertex 16.9165466474391 19.724521076565 10.3815298788907
endloop
endfacet
facet normal 4.50427338641075e-015 -0.805055837353381 0.593199038049833
outer loop
vertex 16.9165466474391 19.724521076565 10.3815298788907
vertex 32.116546647446 19.724521076565 10.3815298788908
vertex 21.1657351716396 24.1960253763315 16.4500000000029
endloop
endfacet
facet normal 4.50427338641075e-015 -0.805055837353381 0.593199038049833
outer loop
vertex 21.1657351716396 24.1960253763315 16.4500000000029
vertex 32.116546647446 19.724521076565 10.3815298788908
vertex 27.8673581232406 24.1960253763315 16.4500000000022
endloop
endfacet
facet normal -0.819152044288896 -1.68502235376405e-013 -0.573576436351182
outer loop
vertex 27.8673581232417 12.6968253763329 16.4500000000043
vertex 32.116546647446 19.724521076565 10.3815298788908
vertex 32.1165466474463 12.6968253763326 10.3815298788918
endloop
endfacet
facet normal -0.819152044288896 -1.68502235376405e-013 -0.573576436351182
outer loop
vertex 32.116546647446 19.724521076565 10.3815298788908
vertex 27.8673581232417 12.6968253763329 16.4500000000043
vertex 27.8673581232406 24.1960253763315 16.4500000000022
endloop
endfacet
facet normal -0.819152044288853 -5.51379643011341e-014 -0.573576436351243
outer loop
vertex 32.1165466474458 20.9245210765663 10.3815298788906
vertex 29.3377939534819 28.8960253763317 14.3500000000013
vertex 32.116546647445 40.3960253763326 10.3815298788887
endloop
endfacet
facet normal -0.819152044288853 -5.51379643011341e-014 -0.573576436351243
outer loop
vertex 29.3377939534819 28.8960253763317 14.3500000000013
vertex 32.1165466474458 20.9245210765663 10.3815298788906
vertex 27.8673581232404 25.3960253763329 16.4500000000012
endloop
endfacet
facet normal -0.819152044288853 -5.51379643011341e-014 -0.573576436351243
outer loop
vertex 29.3377939534819 28.8960253763317 14.3500000000013
vertex 27.8673581232404 25.3960253763329 16.4500000000012
vertex 27.8673581232404 28.8960253763304 16.4500000000012
endloop
endfacet
facet normal -0.819152044288853 -5.51379643011341e-014 -0.573576436351243
outer loop
vertex 32.116546647445 40.3960253763326 10.3815298788887
vertex 29.3377939534819 28.8960253763317 14.3500000000013
vertex 29.3377939534813 31.8960253763306 14.3500000000013
endloop
endfacet
facet normal -0.819152044288853 -5.51379643011341e-014 -0.573576436351243
outer loop
vertex 32.116546647445 40.3960253763326 10.3815298788887
vertex 29.3377939534813 31.8960253763306 14.3500000000013
vertex 27.8673581232404 31.8960253763307 16.4500000000012
endloop
endfacet
facet normal -0.819152044288853 -5.51379643011341e-014 -0.573576436351243
outer loop
vertex 32.116546647445 40.3960253763326 10.3815298788887
vertex 27.8673581232404 31.8960253763307 16.4500000000012
vertex 27.8673581232404 40.3960253763329 16.4500000000012
endloop
endfacet
facet normal -1.88330333876385e-014 0.805055837353349 -0.593199038049876
outer loop
vertex 16.9165466474391 20.9245210765662 10.3815298788906
vertex 32.1165466474461 13.274972744754 4.05488620458527e-012
vertex 16.9165466474391 13.2749727447541 4.05344238174621e-012
endloop
endfacet
facet normal -1.88330333876385e-014 0.805055837353349 -0.593199038049876
outer loop
vertex 32.1165466474461 13.274972744754 4.05488620458527e-012
vertex 16.9165466474391 20.9245210765662 10.3815298788906
vertex 32.1165466474458 20.9245210765663 10.3815298788906
endloop
endfacet
facet normal -1.88330333876385e-014 0.805055837353349 -0.593199038049876
outer loop
vertex 32.1165466474458 20.9245210765663 10.3815298788906
vertex 16.9165466474391 20.9245210765662 10.3815298788906
vertex 21.1657351716396 25.3960253763315 16.4500000000028
endloop
endfacet
facet normal -1.88330333876385e-014 0.805055837353349 -0.593199038049876
outer loop
vertex 32.1165466474458 20.9245210765663 10.3815298788906
vertex 21.1657351716396 25.3960253763315 16.4500000000028
vertex 27.8673581232404 25.3960253763329 16.4500000000012
endloop
endfacet
facet normal -0.73364180840626 2.7903330637999e-018 0.679536383837092
outer loop
vertex 18.0952993413993 31.8960253763307 14.3500000000012
vertex 15.3165466474383 28.8960253763308 11.3500000000012
vertex 18.0952993413993 28.8960253763308 14.3500000000012
endloop
endfacet
facet normal -0.73364180840626 2.7903330637999e-018 0.679536383837092
outer loop
vertex 15.3165466474383 28.8960253763308 11.3500000000012
vertex 18.0952993413993 31.8960253763307 14.3500000000012
vertex 15.3165466474383 31.8960253763308 11.3500000000012
endloop
endfacet
facet normal 0.733641808406266 -3.18873119892006e-017 -0.679536383837086
outer loop
vertex 13.3165466474383 31.8960253763308 12.7225775475357
vertex 16.7690750412114 28.8960253763308 16.4500000000014
vertex 13.3165466474383 28.8960253763308 12.7225775475357
endloop
endfacet
facet normal 0.733641808406266 -3.18873119892006e-017 -0.679536383837086
outer loop
vertex 16.7690750412114 28.8960253763308 16.4500000000014
vertex 13.3165466474383 31.8960253763308 12.7225775475357
vertex 16.7690750412114 31.8960253763308 16.4500000000014
endloop
endfacet
facet normal 1.0 0.0 0.0
outer loop
vertex 13.3165466474383 31.8960253763308 1.25639658676846e-012
vertex 13.3165466474383 28.8960253763308 12.7225775475357
vertex 13.3165466474383 28.8960253763308 1.25639658676846e-012
endloop
endfacet
facet normal 1.0 0.0 0.0
outer loop
vertex 13.3165466474383 28.8960253763308 12.7225775475357
vertex 13.3165466474383 31.8960253763308 1.25639658676846e-012
vertex 13.3165466474383 31.8960253763308 12.7225775475357
endloop
endfacet
facet normal -1.0 -5.06326913425099e-014 0.0
outer loop
vertex 15.3165466474379 40.3960253763346 17.7000000000012
vertex 15.3165466474383 33.0960253763308 1.25639658676846e-012
vertex 15.3165466474383 33.0960253763308 17.7000000000012
endloop
endfacet
facet normal -1.0 -5.06326913425099e-014 0.0
outer loop
vertex 15.3165466474383 33.0960253763308 1.25639658676846e-012
vertex 15.3165466474379 40.3960253763346 17.7000000000012
vertex 15.3165466474379 40.3960253763346 1.25603563105869e-012
endloop
endfacet
facet normal -1.0 -3.08031967372016e-014 4.45043566690701e-014
outer loop
vertex 15.3165466474392 27.6960253763307 10.3815298788917
vertex 15.3165466474392 12.6968253763347 4.34996749731909e-012
vertex 15.3165466474392 12.6968253763324 10.3815298788917
endloop
endfacet
facet normal -1.0 -3.08031967372016e-014 4.45043566690701e-014
outer loop
vertex 15.3165466474392 12.6968253763347 4.34996749731909e-012
vertex 15.3165466474392 27.6960253763307 10.3815298788917
vertex 15.3165466474383 27.6960253763308 1.45708796139843e-012
endloop
endfacet
facet normal -1.0 0.0 0.0
outer loop
vertex 12.1165466474379 33.0960253763307 17.7000000000012
vertex 12.1165466474379 27.6960253763307 8.89304629936305e-013
vertex 12.1165466474379 27.6960253763307 17.700000000002
endloop
endfacet
facet normal -1.0 0.0 0.0
outer loop
vertex 12.1165466474379 27.6960253763307 8.89304629936305e-013
vertex 12.1165466474379 33.0960253763307 17.7000000000012
vertex 12.1165466474379 33.0960253763307 8.66925375930805e-013
endloop
endfacet
facet normal -2.8876456781287e-014 1.0 -1.61824715699949e-031
outer loop
vertex 12.1165466474379 33.0960253763307 17.7000000000012
vertex 15.3165466474383 33.0960253763308 1.25639658676846e-012
vertex 12.1165466474379 33.0960253763307 8.66925375930805e-013
endloop
endfacet
facet normal -2.8876456781287e-014 1.0 -1.61824715699949e-031
outer loop
vertex 15.3165466474383 33.0960253763308 1.25639658676846e-012
vertex 12.1165466474379 33.0960253763307 17.7000000000012
vertex 15.3165466474383 33.0960253763308 17.7000000000012
endloop
endfacet
facet normal 2.8876456781287e-014 1.0 -1.61824715699949e-031
outer loop
vertex 33.7165466474413 33.0960253763307 3.7855230061723e-013
vertex 36.9165466474417 33.0960253763306 17.7000000000004
vertex 36.9165466474417 33.0960253763306 -1.12798659301916e-014
endloop
endfacet
facet normal 2.8876456781287e-014 1.0 -1.61824715699949e-031
outer loop
vertex 36.9165466474417 33.0960253763306 17.7000000000004
vertex 33.7165466474413 33.0960253763307 3.7855230061723e-013
vertex 33.7165466474413 33.0960253763307 17.7000000000004
endloop
endfacet
facet normal 1.06037941848375e-014 1.0 -8.68857737467208e-015
outer loop
vertex 33.7165466474413 28.8960253763307 11.3500000000003
vertex 35.7165466474413 28.8960253763307 3.7855230061723e-013
vertex 33.7165466474413 28.8960253763307 3.7855230061723e-013
endloop
endfacet
facet normal 1.06037941848375e-014 1.0 -8.68857737467208e-015
outer loop
vertex 35.7165466474413 28.8960253763307 3.7855230061723e-013
vertex 33.7165466474413 28.8960253763307 11.3500000000003
vertex 35.7165466474413 28.8960253763307 12.7225775475348
endloop
endfacet
facet normal 1.06037941848375e-014 1.0 -8.68857737467208e-015
outer loop
vertex 35.7165466474413 28.8960253763307 12.7225775475348
vertex 33.7165466474413 28.8960253763307 11.3500000000003
vertex 30.9377939534804 28.8960253763307 14.3500000000004
endloop
endfacet
facet normal 1.06037941848375e-014 1.0 -8.68857737467208e-015
outer loop
vertex 35.7165466474413 28.8960253763307 12.7225775475348
vertex 30.9377939534804 28.8960253763307 14.3500000000004
vertex 32.2640182536682 28.8960253763307 16.4500000000005
endloop
endfacet
facet normal 1.06037941848375e-014 1.0 -8.68857737467208e-015
outer loop
vertex 32.2640182536682 28.8960253763307 16.4500000000005
vertex 30.9377939534804 28.8960253763307 14.3500000000004
vertex 29.3377939534819 28.8960253763317 14.3500000000013
endloop
endfacet
facet normal 1.06037941848375e-014 1.0 -8.68857737467208e-015
outer loop
vertex 32.2640182536682 28.8960253763307 16.4500000000005
vertex 29.3377939534819 28.8960253763317 14.3500000000013
vertex 27.8673581232404 28.8960253763304 16.4500000000012
endloop
endfacet
facet normal 1.0 0.0 0.0
outer loop
vertex 36.9165466474417 33.0960253763306 -1.12798659301916e-014
vertex 36.9165466474417 27.6960253763306 17.7000000000011
vertex 36.9165466474417 27.6960253763306 1.18212994948408e-014
endloop
endfacet
facet normal 1.0 0.0 0.0
outer loop
vertex 36.9165466474417 27.6960253763306 17.7000000000011
vertex 36.9165466474417 33.0960253763306 -1.12798659301916e-014
vertex 36.9165466474417 33.0960253763306 17.7000000000004
endloop
endfacet
facet normal 1.0 0.0 0.0
outer loop
vertex 33.7165466474413 31.8960253763307 3.7855230061723e-013
vertex 33.7165466474413 28.8960253763307 11.3500000000003
vertex 33.7165466474413 28.8960253763307 3.7855230061723e-013
endloop
endfacet
facet normal 1.0 0.0 0.0
outer loop
vertex 33.7165466474413 28.8960253763307 11.3500000000003
vertex 33.7165466474413 31.8960253763307 3.7855230061723e-013
vertex 33.7165466474413 31.8960253763307 11.3500000000003
endloop
endfacet
facet normal -3.54250621280279e-015 -1.0 -3.04828415724725e-015
outer loop
vertex 36.9165466474417 27.6960253763306 17.7000000000011
vertex 33.7165466474413 27.6960253763307 5.79243675247199e-013
vertex 36.9165466474417 27.6960253763306 1.18212994948408e-014
endloop
endfacet
facet normal -3.54250621280279e-015 -1.0 -3.04828415724725e-015
outer loop
vertex 33.7165466474413 27.6960253763307 5.79243675247199e-013
vertex 36.9165466474417 27.6960253763306 17.7000000000011
vertex 33.7165466474463 27.6960253763306 10.3815298788918
endloop
endfacet
facet normal -3.54250621280279e-015 -1.0 -3.04828415724725e-015
outer loop
vertex 33.7165466474463 27.6960253763306 10.3815298788918
vertex 36.9165466474417 27.6960253763306 17.7000000000011
vertex 28.5920987004794 27.6960253763306 17.7000000000043
endloop
endfacet
facet normal -0.733641808406266 -2.28738203627833e-017 -0.679536383837086
outer loop
vertex 32.2640182536682 31.8960253763307 16.4500000000005
vertex 35.7165466474413 28.8960253763307 12.7225775475348
vertex 32.2640182536682 28.8960253763307 16.4500000000005
endloop
endfacet
facet normal -0.733641808406266 -2.28738203627833e-017 -0.679536383837086
outer loop
vertex 35.7165466474413 28.8960253763307 12.7225775475348
vertex 32.2640182536682 31.8960253763307 16.4500000000005
vertex 35.7165466474413 31.8960253763307 12.7225775475348
endloop
endfacet
facet normal 7.6890723034677e-015 -1.0 9.34474005804122e-017
outer loop
vertex 35.7165466474413 31.8960253763307 12.7225775475348
vertex 33.7165466474413 31.8960253763307 3.7855230061723e-013
vertex 35.7165466474413 31.8960253763307 3.7855230061723e-013
endloop
endfacet
facet normal 7.6890723034677e-015 -1.0 9.34474005804122e-017
outer loop
vertex 33.7165466474413 31.8960253763307 3.7855230061723e-013
vertex 35.7165466474413 31.8960253763307 12.7225775475348
vertex 33.7165466474413 31.8960253763307 11.3500000000003
endloop
endfacet
facet normal 7.6890723034677e-015 -1.0 9.34474005804122e-017
outer loop
vertex 33.7165466474413 31.8960253763307 11.3500000000003
vertex 35.7165466474413 31.8960253763307 12.7225775475348
vertex 30.9377939534804 31.8960253763306 14.3500000000004
endloop
endfacet
facet normal 7.6890723034677e-015 -1.0 9.34474005804122e-017
outer loop
vertex 30.9377939534804 31.8960253763306 14.3500000000004
vertex 35.7165466474413 31.8960253763307 12.7225775475348
vertex 32.2640182536682 31.8960253763307 16.4500000000005
endloop
endfacet
facet normal 7.6890723034677e-015 -1.0 9.34474005804122e-017
outer loop
vertex 30.9377939534804 31.8960253763306 14.3500000000004
vertex 32.2640182536682 31.8960253763307 16.4500000000005
vertex 29.3377939534813 31.8960253763306 14.3500000000013
endloop
endfacet
facet normal 7.6890723034677e-015 -1.0 9.34474005804122e-017
outer loop
vertex 29.3377939534813 31.8960253763306 14.3500000000013
vertex 32.2640182536682 31.8960253763307 16.4500000000005
vertex 27.8673581232404 31.8960253763307 16.4500000000012
endloop
endfacet
facet normal 1.0 -5.06326913425125e-013 3.44230454571723e-030
outer loop
vertex 33.716546647445 40.3960253763342 1.25747945389776e-012
vertex 33.7165466474413 33.0960253763307 17.7000000000004
vertex 33.7165466474413 33.0960253763307 3.7855230061723e-013
endloop
endfacet
facet normal 1.0 -5.06326913425125e-013 3.44230454571723e-030
outer loop
vertex 33.7165466474413 33.0960253763307 17.7000000000004
vertex 33.716546647445 40.3960253763342 1.25747945389776e-012
vertex 33.716546647445 40.3960253763342 17.7000000000012
endloop
endfacet
facet normal -7.19066143557419e-014 -3.41179599762468e-014 -1.0
outer loop
vertex 32.2640182536682 31.8960253763307 16.4500000000005
vertex 27.8673581232404 28.8960253763304 16.4500000000012
vertex 27.8673581232404 31.8960253763307 16.4500000000012
endloop
endfacet
facet normal -7.19066143557419e-014 -3.41179599762468e-014 -1.0
outer loop
vertex 27.8673581232404 28.8960253763304 16.4500000000012
vertex 32.2640182536682 31.8960253763307 16.4500000000005
vertex 32.2640182536682 28.8960253763307 16.4500000000005
endloop
endfacet
facet normal -7.19066143557419e-014 -3.41179599762468e-014 -1.0
outer loop
vertex 27.8673581232404 40.3960253763329 16.4500000000012
vertex 21.1657351716392 31.8960253763308 16.4500000000021
vertex 21.1657351716389 40.3960253763315 16.4500000000012
endloop
endfacet
facet normal -7.19066143557419e-014 -3.41179599762468e-014 -1.0
outer loop
vertex 21.1657351716392 31.8960253763308 16.4500000000021
vertex 27.8673581232404 40.3960253763329 16.4500000000012
vertex 21.1657351716394 28.8960253763308 16.4500000000018
endloop
endfacet
facet normal -7.19066143557419e-014 -3.41179599762468e-014 -1.0
outer loop
vertex 21.1657351716394 28.8960253763308 16.4500000000018
vertex 27.8673581232404 40.3960253763329 16.4500000000012
vertex 21.1657351716396 25.3960253763315 16.4500000000028
endloop
endfacet
facet normal -7.19066143557419e-014 -3.41179599762468e-014 -1.0
outer loop
vertex 21.1657351716396 25.3960253763315 16.4500000000028
vertex 27.8673581232404 40.3960253763329 16.4500000000012
vertex 27.8673581232404 25.3960253763329 16.4500000000012
endloop
endfacet
facet normal -7.19066143557419e-014 -3.41179599762468e-014 -1.0
outer loop
vertex 27.8673581232404 25.3960253763329 16.4500000000012
vertex 27.8673581232404 40.3960253763329 16.4500000000012
vertex 27.8673581232404 31.8960253763307 16.4500000000012
endloop
endfacet
facet normal -7.19066143557419e-014 -3.41179599762468e-014 -1.0
outer loop
vertex 27.8673581232404 25.3960253763329 16.4500000000012
vertex 27.8673581232404 31.8960253763307 16.4500000000012
vertex 27.8673581232404 28.8960253763304 16.4500000000012
endloop
endfacet
facet normal -7.19066143557419e-014 -3.41179599762468e-014 -1.0
outer loop
vertex 21.1657351716392 31.8960253763308 16.4500000000021
vertex 16.7690750412114 28.8960253763308 16.4500000000014
vertex 16.7690750412114 31.8960253763308 16.4500000000014
endloop
endfacet
facet normal -7.19066143557419e-014 -3.41179599762468e-014 -1.0
outer loop
vertex 16.7690750412114 28.8960253763308 16.4500000000014
vertex 21.1657351716392 31.8960253763308 16.4500000000021
vertex 21.1657351716394 28.8960253763308 16.4500000000018
endloop
endfacet
facet normal 0.73364180840626 4.55407853210349e-018 0.679536383837092
outer loop
vertex 33.7165466474413 31.8960253763307 11.3500000000003
vertex 30.9377939534804 28.8960253763307 14.3500000000004
vertex 33.7165466474413 28.8960253763307 11.3500000000003
endloop
endfacet
facet normal 0.73364180840626 4.55407853210349e-018 0.679536383837092
outer loop
vertex 30.9377939534804 28.8960253763307 14.3500000000004
vertex 33.7165466474413 31.8960253763307 11.3500000000003
vertex 30.9377939534804 31.8960253763306 14.3500000000004
endloop
endfacet
facet normal 5.80236303449489e-013 -6.25656563589282e-015 1.0
outer loop
vertex 29.3377939534819 28.8960253763317 14.3500000000013
vertex 30.9377939534804 31.8960253763306 14.3500000000004
vertex 29.3377939534813 31.8960253763306 14.3500000000013
endloop
endfacet
facet normal 5.80236303449489e-013 -6.25656563589282e-015 1.0
outer loop
vertex 30.9377939534804 31.8960253763306 14.3500000000004
vertex 29.3377939534819 28.8960253763317 14.3500000000013
vertex 30.9377939534804 28.8960253763307 14.3500000000004
endloop
endfacet
facet normal -1.0 0.0 0.0
outer loop
vertex 35.7165466474413 31.8960253763307 12.7225775475348
vertex 35.7165466474413 28.8960253763307 3.7855230061723e-013
vertex 35.7165466474413 28.8960253763307 12.7225775475348
endloop
endfacet
facet normal -1.0 0.0 0.0
outer loop
vertex 35.7165466474413 28.8960253763307 3.7855230061723e-013
vertex 35.7165466474413 31.8960253763307 12.7225775475348
vertex 35.7165466474413 31.8960253763307 3.7855230061723e-013
endloop
endfacet
facet normal 2.68463414829026e-014 -1.0 -1.00859232075244e-013
outer loop
vertex 16.9165466474392 12.6968253763328 7.31847012111703
vertex 19.5657351716401 12.6968253763314 1.25000000000435
vertex 21.1657351716401 12.6968253763315 1.25000000000435
endloop
endfacet
facet normal 2.68463414829026e-014 -1.0 -1.00859232075244e-013
outer loop
vertex 19.5657351716401 12.6968253763314 1.25000000000435
vertex 16.9165466474392 12.6968253763328 7.31847012111703
vertex 16.9165466474392 12.696825376332 5.03343331032823
endloop
endfacet
facet normal 2.68463414829026e-014 -1.0 -1.00859232075244e-013
outer loop
vertex 33.7165466474463 12.6968253763325 10.3815298788918
vertex 32.1165466474463 12.6968253763322 1.25000000000435
vertex 33.7165466474463 12.6968253763342 4.35141132015815e-012
endloop
endfacet
facet normal 2.68463414829026e-014 -1.0 -1.00859232075244e-013
outer loop
vertex 32.1165466474463 12.6968253763322 1.25000000000435
vertex 33.7165466474463 12.6968253763325 10.3815298788918
vertex 32.1165466474463 12.6968253763322 5.03343331033025
endloop
endfacet
facet normal 2.68463414829026e-014 -1.0 -1.00859232075244e-013
outer loop
vertex 32.1165466474463 12.6968253763322 5.03343331033025
vertex 33.7165466474463 12.6968253763325 10.3815298788918
vertex 32.1165466474463 12.6968253763326 7.31847012111697
endloop
endfacet
facet normal 2.68463414829026e-014 -1.0 -1.00859232075244e-013
outer loop
vertex 32.1165466474463 12.6968253763326 7.31847012111697
vertex 33.7165466474463 12.6968253763325 10.3815298788918
vertex 32.1165466474463 12.6968253763326 10.3815298788918
endloop
endfacet
facet normal 2.68463414829026e-014 -1.0 -1.00859232075244e-013
outer loop
vertex 32.1165466474463 12.6968253763326 10.3815298788918
vertex 33.7165466474463 12.6968253763325 10.3815298788918
vertex 27.8673581232417 12.6968253763329 16.4500000000043
endloop
endfacet
facet normal 2.68463414829026e-014 -1.0 -1.00859232075244e-013
outer loop
vertex 27.8673581232417 12.6968253763329 16.4500000000043
vertex 33.7165466474463 12.6968253763325 10.3815298788918
vertex 28.5920987004794 12.6968253763336 17.7000000000043
endloop
endfacet
facet normal 2.68463414829026e-014 -1.0 -1.00859232075244e-013
outer loop
vertex 27.8673581232417 12.6968253763329 16.4500000000043
vertex 28.5920987004794 12.6968253763336 17.7000000000043
vertex 21.1657351716401 12.6968253763315 16.4500000000043
endloop
endfacet
facet normal 2.68463414829026e-014 -1.0 -1.00859232075244e-013
outer loop
vertex 15.3165466474392 12.6968253763347 4.34996749731909e-012
vertex 16.9165466474392 12.6968253763307 1.25000000000435
vertex 15.3165466474392 12.6968253763324 10.3815298788917
endloop
endfacet
facet normal 2.68463414829026e-014 -1.0 -1.00859232075244e-013
outer loop
vertex 16.9165466474392 12.6968253763307 1.25000000000435
vertex 15.3165466474392 12.6968253763347 4.34996749731909e-012
vertex 33.7165466474463 12.6968253763342 4.35141132015815e-012
endloop
endfacet
facet normal 2.68463414829026e-014 -1.0 -1.00859232075244e-013
outer loop
vertex 16.9165466474392 12.6968253763307 1.25000000000435
vertex 33.7165466474463 12.6968253763342 4.35141132015815e-012
vertex 21.1657351716401 12.6968253763315 1.25000000000435
endloop
endfacet
facet normal 2.68463414829026e-014 -1.0 -1.00859232075244e-013
outer loop
vertex 21.1657351716401 12.6968253763315 1.25000000000435
vertex 33.7165466474463 12.6968253763342 4.35141132015815e-012
vertex 29.4673581232415 12.6968253763331 1.25000000000435
endloop
endfacet
facet normal 2.68463414829026e-014 -1.0 -1.00859232075244e-013
outer loop
vertex 29.4673581232415 12.6968253763331 1.25000000000435
vertex 33.7165466474463 12.6968253763342 4.35141132015815e-012
vertex 32.1165466474463 12.6968253763322 1.25000000000435
endloop
endfacet
facet normal 2.68463414829026e-014 -1.0 -1.00859232075244e-013
outer loop
vertex 16.9165466474392 12.6968253763307 1.25000000000435
vertex 21.1657351716401 12.6968253763315 1.25000000000435
vertex 19.5657351716401 12.6968253763314 1.25000000000435
endloop
endfacet
facet normal 2.68463414829026e-014 -1.0 -1.00859232075244e-013
outer loop
vertex 15.3165466474392 12.6968253763324 10.3815298788917
vertex 16.9165466474392 12.6968253763307 1.25000000000435
vertex 16.9165466474392 12.696825376332 5.03343331032823
endloop
endfacet
facet normal 2.68463414829026e-014 -1.0 -1.00859232075244e-013
outer loop
vertex 15.3165466474392 12.6968253763324 10.3815298788917
vertex 16.9165466474392 12.696825376332 5.03343331032823
vertex 16.9165466474392 12.6968253763328 7.31847012111703
endloop
endfacet
facet normal 2.68463414829026e-014 -1.0 -1.00859232075244e-013
outer loop
vertex 15.3165466474392 12.6968253763324 10.3815298788917
vertex 16.9165466474392 12.6968253763328 7.31847012111703
vertex 16.9165466474392 12.6968253763328 10.3815298788917
endloop
endfacet
facet normal 2.68463414829026e-014 -1.0 -1.00859232075244e-013
outer loop
vertex 15.3165466474392 12.6968253763324 10.3815298788917
vertex 16.9165466474392 12.6968253763328 10.3815298788917
vertex 20.4409945944017 12.6968253763312 17.7000000000043
endloop
endfacet
facet normal 2.68463414829026e-014 -1.0 -1.00859232075244e-013
outer loop
vertex 20.4409945944017 12.6968253763312 17.7000000000043
vertex 16.9165466474392 12.6968253763328 10.3815298788917
vertex 21.1657351716401 12.6968253763315 16.4500000000043
endloop
endfacet
facet normal 2.68463414829026e-014 -1.0 -1.00859232075244e-013
outer loop
vertex 20.4409945944017 12.6968253763312 17.7000000000043
vertex 21.1657351716401 12.6968253763315 16.4500000000043
vertex 28.5920987004794 12.6968253763336 17.7000000000043
endloop
endfacet
facet normal 2.68463414829026e-014 -1.0 -1.00859232075244e-013
outer loop
vertex 29.4673581232415 12.6968253763331 1.25000000000435
vertex 27.8673581232417 12.6968253763329 1.25000000000435
vertex 21.1657351716401 12.6968253763315 1.25000000000435
endloop
endfacet
facet normal 2.68463414829026e-014 -1.0 -1.00859232075244e-013
outer loop
vertex 27.8673581232417 12.6968253763329 1.25000000000435
vertex 29.4673581232415 12.6968253763331 1.25000000000435
vertex 32.1165466474463 12.6968253763322 5.03343331033025
endloop
endfacet
facet normal 2.68463414829026e-014 -1.0 -1.00859232075244e-013
outer loop
vertex 27.8673581232417 12.6968253763329 1.25000000000435
vertex 32.1165466474463 12.6968253763322 5.03343331033025
vertex 32.1165466474463 12.6968253763326 7.31847012111697
endloop
endfacet
facet normal 0.81915204428892 3.5357630678006e-019 0.573576436351148
outer loop
vertex 33.7165466474463 27.6960253763306 10.3815298788918
vertex 28.5920987004794 12.6968253763336 17.7000000000043
vertex 33.7165466474463 12.6968253763325 10.3815298788918
endloop
endfacet
facet normal 0.81915204428892 3.5357630678006e-019 0.573576436351148
outer loop
vertex 28.5920987004794 12.6968253763336 17.7000000000043
vertex 33.7165466474463 27.6960253763306 10.3815298788918
vertex 28.5920987004794 27.6960253763306 17.7000000000043
endloop
endfacet
facet normal 1.0 1.66337262380885e-013 -2.40323526012982e-013
outer loop
vertex 33.7165466474463 12.6968253763342 4.35141132015815e-012
vertex 33.7165466474463 27.6960253763306 10.3815298788918
vertex 33.7165466474463 12.6968253763325 10.3815298788918
endloop
endfacet
facet normal 1.0 1.66337262380885e-013 -2.40323526012982e-013
outer loop
vertex 33.7165466474463 27.6960253763306 10.3815298788918
vertex 33.7165466474463 12.6968253763342 4.35141132015815e-012
vertex 33.7165466474413 27.6960253763307 5.79243675247199e-013
endloop
endfacet
facet normal 3.72000815583876e-014 1.35070784626635e-013 1.0
outer loop
vertex 20.4409945944017 27.6960253763307 17.7000000000043
vertex 12.1165466474379 33.0960253763307 17.7000000000012
vertex 12.1165466474379 27.6960253763307 17.700000000002
endloop
endfacet
facet normal 3.72000815583876e-014 1.35070784626635e-013 1.0
outer loop
vertex 12.1165466474379 33.0960253763307 17.7000000000012
vertex 20.4409945944017 27.6960253763307 17.7000000000043
vertex 15.3165466474383 33.0960253763308 17.7000000000012
endloop
endfacet
facet normal 3.72000815583876e-014 1.35070784626635e-013 1.0
outer loop
vertex 28.5920987004794 12.6968253763336 17.7000000000043
vertex 20.4409945944017 27.6960253763307 17.7000000000043
vertex 20.4409945944017 12.6968253763312 17.7000000000043
endloop
endfacet
facet normal 3.72000815583876e-014 1.35070784626635e-013 1.0
outer loop
vertex 36.9165466474417 27.6960253763306 17.7000000000011
vertex 33.7165466474413 33.0960253763307 17.7000000000004
vertex 28.5920987004794 27.6960253763306 17.7000000000043
endloop
endfacet
facet normal 3.72000815583876e-014 1.35070784626635e-013 1.0
outer loop
vertex 33.7165466474413 33.0960253763307 17.7000000000004
vertex 36.9165466474417 27.6960253763306 17.7000000000011
vertex 36.9165466474417 33.0960253763306 17.7000000000004
endloop
endfacet
facet normal 3.72000815583876e-014 1.35070784626635e-013 1.0
outer loop
vertex 15.3165466474383 33.0960253763308 17.7000000000012
vertex 33.716546647445 40.3960253763342 17.7000000000012
vertex 15.3165466474379 40.3960253763346 17.7000000000012
endloop
endfacet
facet normal 3.72000815583876e-014 1.35070784626635e-013 1.0
outer loop
vertex 33.716546647445 40.3960253763342 17.7000000000012
vertex 15.3165466474383 33.0960253763308 17.7000000000012
vertex 20.4409945944017 27.6960253763307 17.7000000000043
endloop
endfacet
facet normal 3.72000815583876e-014 1.35070784626635e-013 1.0
outer loop
vertex 33.716546647445 40.3960253763342 17.7000000000012
vertex 20.4409945944017 27.6960253763307 17.7000000000043
vertex 28.5920987004794 27.6960253763306 17.7000000000043
endloop
endfacet
facet normal 3.72000815583876e-014 1.35070784626635e-013 1.0
outer loop
vertex 28.5920987004794 27.6960253763306 17.7000000000043
vertex 20.4409945944017 27.6960253763307 17.7000000000043
vertex 28.5920987004794 12.6968253763336 17.7000000000043
endloop
endfacet
facet normal 3.72000815583876e-014 1.35070784626635e-013 1.0
outer loop
vertex 33.716546647445 40.3960253763342 17.7000000000012
vertex 28.5920987004794 27.6960253763306 17.7000000000043
vertex 33.7165466474413 33.0960253763307 17.7000000000004
endloop
endfacet
endsolid model
